<svg width="33" height="32" viewBox="0 0 33 32" fill="none" xmlns="http://www.w3.org/2000/svg">
    <path d="M17.1855 6.66663C11.6639 6.66663 7.18555 11.2573 7.18555 16.9194C7.18555 21.4495 10.0505 25.2926 14.0247 26.6485C14.5239 26.7433 14.6855 26.4255 14.6855 26.1555V24.2468C11.9039 24.8671 11.3247 23.0369 11.3247 23.0369C10.8697 21.8519 10.2139 21.5366 10.2139 21.5366C9.30638 20.9001 10.283 20.9138 10.283 20.9138C11.2872 20.9855 11.8155 21.9706 11.8155 21.9706C12.7072 23.5376 14.1547 23.0848 14.7255 22.8225C14.8147 22.1603 15.0739 21.7075 15.3605 21.452C13.1397 21.1914 10.8047 20.3123 10.8047 16.3846C10.8047 15.2645 11.1955 14.3502 11.8347 13.6326C11.7314 13.3737 11.3889 12.3304 11.9322 10.919C11.9322 10.919 12.7722 10.6439 14.683 11.9699C15.4805 11.7426 16.3355 11.629 17.1855 11.6247C18.0355 11.629 18.8914 11.7426 19.6905 11.9699C21.5997 10.6439 22.438 10.919 22.438 10.919C22.9822 12.3313 22.6397 13.3745 22.5364 13.6326C23.178 14.3502 23.5655 15.2653 23.5655 16.3846C23.5655 20.3225 21.2264 21.1897 18.9997 21.4435C19.358 21.7613 19.6855 22.385 19.6855 23.342V26.1555C19.6855 26.4281 19.8455 26.7485 20.353 26.6476C24.3239 25.29 27.1855 21.4478 27.1855 16.9194C27.1855 11.2573 22.708 6.66663 17.1855 6.66663Z" fill="white"/>
</svg>
