<svg width="170" height="170" viewBox="0 0 170 170" fill="none" xmlns="http://www.w3.org/2000/svg">
    <g filter="url(#filter0_d)">
        <path fill-rule="evenodd" clip-rule="evenodd" d="M79.9705 0.149377C31.202 3.20802 -3.93913 48.7928 5.55375 96.6824C6.45974 101.254 8.3177 107.625 9.67625 110.82C18.1222 130.683 31.3987 144.97 49.6573 153.844C93.195 175.003 145.481 153.381 161.465 107.608C167.435 90.5106 167.512 72.3314 161.686 55.0072C160.809 52.3989 160.47 51.5161 159.294 48.7868C153.955 36.3908 145.589 25.6755 134.28 16.7476C119.582 5.14443 99.2768 -1.06147 79.9705 0.149377ZM87.906 12.9101C130.029 15.1503 160.028 53.3439 151.825 94.2893C143.505 135.816 99.7656 159.862 60.3861 144.559C29.8379 132.687 11.9646 100.606 17.9949 68.4705C23.1282 41.1144 44.7229 19.3333 71.8813 14.1188C75.2081 13.4802 78.5693 13.075 81.8438 12.9186C83.2487 12.8513 84.5132 12.7861 84.6537 12.7738C84.7942 12.761 86.2579 12.8223 87.906 12.9101ZM64.9842 47.0097C55.2469 47.3463 45.1171 48.3914 43.2358 49.2533C39.3862 51.0168 38.4682 56.6062 41.5438 59.5553C43.4478 61.3809 44.9307 61.628 50.0664 60.9749C52.8206 60.6247 57.4395 60.2711 63.6559 59.9345C70.8859 59.5429 85.1101 59.9396 91.5508 60.7129C95.2944 61.1619 99.0359 61.6707 99.7251 61.824C100.1 61.9075 101.301 62.1333 102.395 62.3259C108.889 63.4703 116.703 65.8596 122.68 68.5288C129.199 71.4401 134.984 64.293 130.611 58.7313C129.916 57.8473 128.839 57.2094 126.028 56.0161C110.245 49.316 88.9869 46.1798 64.9842 47.0097ZM65.0693 72.5035C58.6814 72.7774 49.1915 73.5993 47.3834 74.0347C42.449 75.2234 40.8571 81.7305 44.6807 85.081C46.4467 86.628 47.8291 86.8785 51.8712 86.3839C75.7675 83.4603 101.527 85.902 116.329 92.4931C121.692 94.8811 125.769 93.4329 126.823 88.7647C127.623 85.2178 126.013 82.6989 121.779 80.8733C107.126 74.5566 86.8735 71.5675 65.0693 72.5035ZM61.8337 97.1192C55.1443 97.4685 49.0387 98.2158 47.6414 98.8562C43.6721 100.675 42.7717 105.991 45.9022 109.125C47.7001 110.924 48.9782 111.209 53.1344 110.739C62.1636 109.719 75.5934 109.431 82.525 110.108C94.0899 111.239 101.32 112.85 108.821 115.967C113.404 117.873 116.197 117.434 118.247 114.489C120.993 110.543 119.288 106.498 113.917 104.217C100.593 98.5579 82.2171 96.054 61.8337 97.1192Z" fill="#FCFCFC"/>
    </g>
    <path fill-rule="evenodd" clip-rule="evenodd" d="M78.9456 0.0737425C79.2048 0.112939 79.5878 0.112087 79.7968 0.0716127C80.0062 0.0311384 79.7946 -0.00124156 79.3265 3.6579e-05C78.8583 0.00131471 78.6868 0.0345464 78.9456 0.0737425ZM86.2658 0.0737425C86.525 0.112939 86.908 0.112087 87.117 0.0716127C87.3264 0.0311384 87.1148 -0.00124156 86.6467 3.6579e-05C86.1785 0.00131471 86.007 0.0345464 86.2658 0.0737425ZM92.5624 0.580311C92.7263 0.622915 92.9944 0.622915 93.1583 0.580311C93.3221 0.53728 93.1881 0.502344 92.8604 0.502344C92.5326 0.502344 92.3986 0.53728 92.5624 0.580311ZM82.6887 12.8551C82.9462 12.8939 83.3675 12.8939 83.625 12.8551C83.8825 12.8159 83.6718 12.7839 83.1568 12.7839C82.6419 12.7839 82.4312 12.8159 82.6887 12.8551ZM78.52 13.0238C78.7315 13.0647 79.0379 13.063 79.2009 13.0204C79.3635 12.9778 79.1903 12.9441 78.8158 12.9463C78.4413 12.948 78.308 12.9829 78.52 13.0238ZM86.8616 13.0238C87.0731 13.0647 87.3796 13.063 87.5426 13.0204C87.7051 12.9778 87.5319 12.9441 87.1574 12.9463C86.7829 12.948 86.6497 12.9829 86.8616 13.0238ZM28.5013 21.0407L27.9148 21.6798L28.5532 21.0927C29.1473 20.5456 29.2699 20.4016 29.1397 20.4016C29.1116 20.4016 28.8243 20.6892 28.5013 21.0407ZM136.782 20.4549C136.782 20.4843 137.031 20.7335 137.335 21.0088L137.888 21.5094L137.388 20.9555C136.922 20.4391 136.782 20.3232 136.782 20.4549ZM25.5277 23.8526L24.1696 25.2586L25.574 23.899C26.8785 22.6367 27.056 22.4467 26.9321 22.4467C26.9062 22.4467 26.2741 23.0793 25.5277 23.8526ZM140.357 23.8952C141.148 24.6919 141.834 25.3438 141.881 25.3438C141.928 25.3438 141.318 24.6919 140.527 23.8952C139.735 23.0985 139.049 22.4467 139.002 22.4467C138.956 22.4467 139.565 23.0985 140.357 23.8952ZM22.8834 26.6645L22.297 27.3036L22.9354 26.7165C23.5295 26.1694 23.6521 26.0254 23.5218 26.0254C23.4937 26.0254 23.2065 26.313 22.8834 26.6645ZM142.57 26.2491C142.57 26.2785 142.819 26.5277 143.123 26.803L143.676 27.3036L143.176 26.7497C142.71 26.2333 142.57 26.1175 142.57 26.2491ZM21.6054 28.1131L21.1053 28.6669L21.6586 28.1663C22.1744 27.6998 22.2902 27.5592 22.1587 27.5592C22.1293 27.5592 21.8803 27.8084 21.6054 28.1131ZM128.355 30.2859C128.72 30.6608 129.058 30.9676 129.105 30.9676C129.152 30.9676 128.891 30.6608 128.525 30.2859C128.16 29.911 127.822 29.6042 127.775 29.6042C127.728 29.6042 127.989 29.911 128.355 30.2859ZM37.2698 30.4989L36.5969 31.2232L37.3204 30.5496C37.7183 30.1789 38.0439 29.853 38.0439 29.8253C38.0439 29.6962 37.8958 29.8253 37.2698 30.4989ZM130.738 32.5013C131.199 32.97 131.615 33.3534 131.662 33.3534C131.709 33.3534 131.369 32.97 130.908 32.5013C130.447 32.0327 130.032 31.6492 129.985 31.6492C129.938 31.6492 130.277 32.0327 130.738 32.5013ZM32.4167 35.3558L31.8303 35.9949L32.4687 35.4078C33.0628 34.8608 33.1854 34.7168 33.0551 34.7168C33.027 34.7168 32.7398 35.0043 32.4167 35.3558ZM133.547 35.4836C133.865 35.8117 134.163 36.0801 134.21 36.0801C134.257 36.0801 134.035 35.8117 133.717 35.4836C133.4 35.1556 133.102 34.8872 133.055 34.8872C133.008 34.8872 133.23 35.1556 133.547 35.4836ZM11.0613 43.5785C10.9162 43.8597 10.8353 44.0898 10.8821 44.0898C10.9289 44.0898 11.0864 43.8597 11.2315 43.5785C11.3767 43.2973 11.4575 43.0672 11.4107 43.0672C11.3639 43.0672 11.2064 43.2973 11.0613 43.5785ZM154.742 43.5785C154.887 43.8597 155.044 44.0898 155.091 44.0898C155.138 44.0898 155.057 43.8597 154.912 43.5785C154.767 43.2973 154.609 43.0672 154.562 43.0672C154.516 43.0672 154.596 43.2973 154.742 43.5785ZM9.81219 46.0568C9.52704 46.6835 9.58152 46.8173 9.88965 46.2477C10.0339 45.9814 10.1199 45.7317 10.0807 45.693C10.042 45.6538 9.92114 45.8178 9.81219 46.0568ZM64.303 46.9417C64.7478 46.9766 65.4755 46.9766 65.9203 46.9417C66.365 46.9068 66.0012 46.8778 65.1117 46.8778C64.2222 46.8778 63.8583 46.9068 64.303 46.9417ZM74.7782 46.9421C75.2731 46.9766 76.0392 46.9766 76.4805 46.9413C76.9223 46.9063 76.5176 46.8782 75.5813 46.8786C74.645 46.8791 74.2836 46.9076 74.7782 46.9421ZM60.0492 47.1091C60.3084 47.1483 60.6915 47.1475 60.9004 47.107C61.1098 47.0665 60.8983 47.0342 60.4301 47.0354C59.962 47.0367 59.7905 47.0699 60.0492 47.1091ZM79.8798 47.107C80.0904 47.1479 80.4352 47.1479 80.6458 47.107C80.8565 47.0665 80.6841 47.0333 80.2628 47.0333C79.8415 47.0333 79.6691 47.0665 79.8798 47.107ZM56.5572 47.2774C56.7679 47.3183 57.1126 47.3183 57.3233 47.2774C57.534 47.2369 57.3616 47.2037 56.9403 47.2037C56.5189 47.2037 56.3466 47.2369 56.5572 47.2774ZM83.1143 47.2774C83.3249 47.3183 83.6697 47.3183 83.8803 47.2774C84.091 47.2369 83.9186 47.2037 83.4973 47.2037C83.076 47.2037 82.9036 47.2369 83.1143 47.2774ZM54.1739 47.4478C54.3846 47.4887 54.7293 47.4887 54.94 47.4478C55.1507 47.4074 54.9783 47.3741 54.5569 47.3741C54.1356 47.3741 53.9632 47.4074 54.1739 47.4478ZM85.4976 47.4478C85.7083 47.4887 86.053 47.4887 86.2637 47.4478C86.4743 47.4074 86.302 47.3741 85.8806 47.3741C85.4593 47.3741 85.2869 47.4074 85.4976 47.4478ZM51.963 47.6187C52.1745 47.6596 52.4809 47.6579 52.6439 47.6153C52.8065 47.5727 52.6333 47.539 52.2587 47.5411C51.8842 47.5429 51.751 47.5778 51.963 47.6187ZM87.7128 47.6187C87.9243 47.6596 88.2308 47.6579 88.3938 47.6153C88.5563 47.5727 88.3831 47.539 88.0086 47.5411C87.6341 47.5429 87.5009 47.5778 87.7128 47.6187ZM50.2606 47.7891C50.4721 47.83 50.7785 47.8283 50.9415 47.7857C51.1041 47.7431 50.9309 47.7094 50.5564 47.7116C50.1819 47.7133 50.0486 47.7482 50.2606 47.7891ZM89.3279 47.7861C89.4918 47.8287 89.7599 47.8287 89.9238 47.7861C90.0876 47.7431 89.9536 47.7082 89.6258 47.7082C89.2981 47.7082 89.1641 47.7431 89.3279 47.7861ZM48.471 47.9565C48.6348 47.9991 48.9029 47.9991 49.0668 47.9565C49.2307 47.9135 49.0966 47.8786 48.7689 47.8786C48.4412 47.8786 48.3071 47.9135 48.471 47.9565ZM46.9388 48.127C47.1027 48.1696 47.3708 48.1696 47.5347 48.127C47.6985 48.0839 47.5645 48.049 47.2367 48.049C46.909 48.049 46.775 48.0839 46.9388 48.127ZM37.5877 54.9965C37.5877 55.6057 37.6188 55.855 37.6562 55.5504C37.6941 55.2457 37.6941 54.7473 37.6562 54.4427C37.6188 54.138 37.5877 54.3873 37.5877 54.9965ZM63.7923 59.8935C64.2371 59.9284 64.9648 59.9284 65.4096 59.8935C65.8543 59.8585 65.4904 59.8296 64.601 59.8296C63.7115 59.8296 63.3476 59.8585 63.7923 59.8935ZM75.5438 59.8939C75.9915 59.9288 76.681 59.9284 77.076 59.8926C77.4709 59.8568 77.1049 59.8283 76.2622 59.8287C75.4195 59.8291 75.0961 59.8585 75.5438 59.8939ZM60.1322 60.0588C60.3429 60.0997 60.6876 60.0997 60.8983 60.0588C61.109 60.0183 60.9366 59.9851 60.5153 59.9851C60.0939 59.9851 59.9216 60.0183 60.1322 60.0588ZM79.8819 60.0592C80.0934 60.1001 80.3998 60.0984 80.5628 60.0558C80.7254 60.0132 80.5522 59.9795 80.1777 59.9817C79.8031 59.9834 79.6699 60.0183 79.8819 60.0592ZM52.2162 60.5675C52.38 60.6101 52.6482 60.6101 52.812 60.5675C52.9759 60.5244 52.8418 60.4895 52.5141 60.4895C52.1864 60.4895 52.0523 60.5244 52.2162 60.5675ZM87.4553 60.5675C87.6192 60.6101 87.8873 60.6101 88.0511 60.5675C88.215 60.5244 88.0809 60.4895 87.7532 60.4895C87.4255 60.4895 87.2915 60.5244 87.4553 60.5675ZM50.4308 60.7409C50.6423 60.7818 50.9488 60.7801 51.1118 60.7375C51.2744 60.6949 51.1011 60.6612 50.7266 60.6633C50.3521 60.665 50.2189 60.7 50.4308 60.7409ZM88.9875 60.7379C89.1513 60.7805 89.4194 60.7805 89.5833 60.7379C89.7471 60.6949 89.6131 60.6599 89.2854 60.6599C88.9577 60.6599 88.8236 60.6949 88.9875 60.7379ZM43.4451 61.4251C43.7473 61.4626 44.2836 61.4634 44.6368 61.4264C44.99 61.3893 44.7428 61.3586 44.0874 61.3578C43.4319 61.3569 43.143 61.3872 43.4451 61.4251ZM67.9738 72.3361C69.4072 72.3647 71.7054 72.3647 73.0809 72.3361C74.456 72.3076 73.2831 72.2841 70.4741 72.2841C67.6652 72.2841 66.54 72.3076 67.9738 72.3361ZM62.1798 72.504C62.5798 72.5402 63.1927 72.5398 63.5417 72.5031C63.8902 72.4665 63.5625 72.4371 62.8135 72.4375C62.0644 72.4384 61.7793 72.4682 62.1798 72.504ZM77.8416 72.504C78.2416 72.5402 78.8545 72.5398 79.2035 72.5031C79.552 72.4665 79.2243 72.4371 78.4753 72.4375C77.7262 72.4384 77.4411 72.4682 77.8416 72.504ZM163.548 72.8904C163.548 73.2185 163.583 73.3527 163.626 73.1886C163.669 73.0246 163.669 72.7562 163.626 72.5922C163.583 72.4281 163.548 72.5623 163.548 72.8904ZM58.515 72.6718C58.7725 72.7106 59.1938 72.7106 59.4513 72.6718C59.7088 72.6326 59.4981 72.6007 58.9831 72.6007C58.4682 72.6007 58.2575 72.6326 58.515 72.6718ZM81.5821 72.6697C81.7928 72.7106 82.1375 72.7106 82.3482 72.6697C82.5589 72.6292 82.3865 72.596 81.9652 72.596C81.5438 72.596 81.3715 72.6292 81.5821 72.6697ZM50.5138 73.3488C50.6777 73.3914 50.9458 73.3914 51.1096 73.3488C51.2735 73.3058 51.1394 73.2709 50.8117 73.2709C50.484 73.2709 50.35 73.3058 50.5138 73.3488ZM2.16343 74.9354C2.16343 75.2635 2.19833 75.3977 2.24131 75.2337C2.28387 75.0696 2.28387 74.8012 2.24131 74.6372C2.19833 74.4732 2.16343 74.6074 2.16343 74.9354ZM42.2905 75.7449L41.704 76.384L42.3424 75.7969C42.9366 75.2498 43.0591 75.1058 42.9289 75.1058C42.9008 75.1058 42.6135 75.3934 42.2905 75.7449ZM14.9474 77.7473C14.9483 78.4034 14.9789 78.651 15.0159 78.2973C15.0529 77.9437 15.0521 77.4069 15.0146 77.1044C14.9768 76.8019 14.9466 77.0912 14.9474 77.7473ZM150.96 77.4065C150.961 77.8751 150.994 78.0468 151.033 77.7878C151.073 77.5283 151.072 77.1449 151.031 76.9357C150.991 76.7261 150.959 76.9378 150.96 77.4065ZM2 77.6621C2 78.0839 2.0332 78.2564 2.07363 78.0456C2.11448 77.8347 2.11448 77.4896 2.07363 77.2787C2.0332 77.0678 2 77.2403 2 77.6621ZM163.896 77.6621C163.896 78.0839 163.929 78.2564 163.969 78.0456C164.01 77.8347 164.01 77.4896 163.969 77.2787C163.929 77.0678 163.896 77.2403 163.896 77.6621ZM14.9444 84.3936C14.9453 84.956 14.9772 85.1656 15.0151 84.8593C15.0529 84.553 15.0521 84.0928 15.0134 83.8368C14.9746 83.5807 14.9436 83.8312 14.9444 84.3936ZM2 84.3084C2 84.7302 2.0332 84.9028 2.07363 84.6919C2.11448 84.481 2.11448 84.1359 2.07363 83.925C2.0332 83.7141 2 83.8866 2 84.3084ZM163.896 84.3084C163.896 84.7302 163.929 84.9028 163.969 84.6919C164.01 84.481 164.01 84.1359 163.969 83.925C163.929 83.7141 163.896 83.8866 163.896 84.3084ZM150.96 84.564C150.961 85.0327 150.994 85.2044 151.033 84.9454C151.073 84.6859 151.072 84.3025 151.031 84.0933C150.991 83.8837 150.959 84.0954 150.96 84.564ZM41.7892 84.3617C41.7892 84.3911 42.0381 84.6403 42.3424 84.9155L42.8957 85.4161L42.3956 84.8623C41.9296 84.3459 41.7892 84.23 41.7892 84.3617ZM67.7929 85.2879C69.408 85.316 72.051 85.316 73.6661 85.2879C75.2812 85.2602 73.9598 85.2372 70.7295 85.2372C67.4992 85.2372 66.1778 85.2602 67.7929 85.2879ZM61.9197 85.4549C62.2708 85.492 62.8454 85.492 63.1965 85.4549C63.5476 85.4183 63.2603 85.388 62.5581 85.388C61.8559 85.388 61.5686 85.4183 61.9197 85.4549ZM78.1736 85.4541C78.4757 85.4915 79.012 85.4924 79.3652 85.4553C79.7185 85.4183 79.4712 85.3876 78.8158 85.3867C78.1604 85.3859 77.8714 85.4161 78.1736 85.4541ZM58.6852 85.6236C58.9427 85.6624 59.364 85.6624 59.6215 85.6236C59.879 85.5844 59.6683 85.5525 59.1534 85.5525C58.6384 85.5525 58.4277 85.5844 58.6852 85.6236ZM81.4991 85.6236C81.7583 85.6628 82.1414 85.662 82.3503 85.6215C82.5597 85.581 82.3482 85.5486 81.88 85.5499C81.4119 85.5512 81.2404 85.5844 81.4991 85.6236ZM56.5594 85.7923C56.7709 85.8332 57.0773 85.8315 57.2403 85.7889C57.4029 85.7463 57.2297 85.7127 56.8552 85.7148C56.4806 85.7165 56.3474 85.7514 56.5594 85.7923ZM83.8803 85.7893C84.0442 85.832 84.3123 85.832 84.4762 85.7893C84.64 85.7463 84.506 85.7114 84.1783 85.7114C83.8505 85.7114 83.7165 85.7463 83.8803 85.7893ZM54.259 85.9598C54.4229 86.0024 54.691 86.0024 54.8549 85.9598C55.0187 85.9167 54.8847 85.8818 54.5569 85.8818C54.2292 85.8818 54.0952 85.9167 54.259 85.9598ZM85.9232 85.9598C86.087 86.0024 86.3552 86.0024 86.519 85.9598C86.6829 85.9167 86.5488 85.8818 86.2211 85.8818C85.8934 85.8818 85.7593 85.9167 85.9232 85.9598ZM52.2162 86.1302C52.38 86.1728 52.6482 86.1728 52.812 86.1302C52.9759 86.0872 52.8418 86.0522 52.5141 86.0522C52.1864 86.0522 52.0523 86.0872 52.2162 86.1302ZM49.3222 86.471C49.486 86.5136 49.7541 86.5136 49.918 86.471C50.0818 86.428 49.9478 86.3931 49.6201 86.3931C49.2924 86.3931 49.1583 86.428 49.3222 86.471ZM90.3494 86.471C90.5132 86.5136 90.7813 86.5136 90.9452 86.471C91.109 86.428 90.975 86.3931 90.6473 86.3931C90.3196 86.3931 90.1855 86.428 90.3494 86.471ZM2.16343 87.0351C2.16343 87.3632 2.19833 87.4974 2.24131 87.3333C2.28387 87.1693 2.28387 86.9009 2.24131 86.7369C2.19833 86.5728 2.16343 86.7071 2.16343 87.0351ZM118.186 93.805C118.492 93.8429 118.952 93.842 119.208 93.8033C119.463 93.7645 119.213 93.7334 118.651 93.7342C118.09 93.7351 117.88 93.7671 118.186 93.805ZM66.7817 96.8763C68.1219 96.9053 70.2669 96.9053 71.5483 96.8763C72.8302 96.8474 71.7339 96.8239 69.1122 96.8239C66.4906 96.8239 65.4419 96.8478 66.7817 96.8763ZM60.9864 97.0429C61.2924 97.0808 61.752 97.08 62.0078 97.0412C62.2636 97.0024 62.0133 96.9713 61.4516 96.9722C60.8898 96.973 60.6804 97.005 60.9864 97.0429ZM76.3078 97.0429C76.6138 97.0808 77.0734 97.08 77.3292 97.0412C77.585 97.0024 77.3347 96.9713 76.7729 96.9722C76.2111 96.973 76.0018 97.005 76.3078 97.0429ZM57.9213 97.2103C58.1328 97.2512 58.4392 97.2495 58.6022 97.2069C58.7648 97.1643 58.5916 97.1307 58.2171 97.1328C57.8425 97.1345 57.7093 97.1694 57.9213 97.2103ZM79.4542 97.2074C79.618 97.25 79.8861 97.25 80.05 97.2074C80.2139 97.1643 80.0798 97.1294 79.7521 97.1294C79.4244 97.1294 79.2903 97.1643 79.4542 97.2074ZM64.3882 109.826C64.8797 109.861 65.6841 109.861 66.1757 109.826C66.6672 109.792 66.265 109.764 65.2819 109.764C64.2988 109.764 63.8966 109.792 64.3882 109.826ZM72.4808 109.827C73.0226 109.861 73.8653 109.86 74.3534 109.826C74.8416 109.792 74.3981 109.764 73.3682 109.765C72.3382 109.765 71.939 109.793 72.4808 109.827ZM60.1322 109.994C60.4365 110.032 60.9345 110.032 61.2388 109.994C61.5431 109.957 61.2941 109.926 60.6855 109.926C60.0769 109.926 59.8279 109.957 60.1322 109.994ZM77.1589 109.995C77.4649 110.033 77.9246 110.032 78.1804 109.993C78.4361 109.954 78.1859 109.923 77.6241 109.924C77.0623 109.925 76.8529 109.957 77.1589 109.995ZM57.7489 110.162C57.9596 110.203 58.3043 110.203 58.515 110.162C58.7256 110.121 58.5533 110.088 58.1319 110.088C57.7106 110.088 57.5382 110.121 57.7489 110.162ZM79.5393 110.162C79.7499 110.203 80.0947 110.203 80.3054 110.162C80.516 110.121 80.3437 110.088 79.9223 110.088C79.501 110.088 79.3286 110.121 79.5393 110.162ZM117.423 110.808C117.424 111.277 117.458 111.449 117.497 111.19C117.536 110.93 117.535 110.547 117.495 110.338C117.454 110.128 117.422 110.34 117.423 110.808ZM55.4507 110.33C55.6146 110.372 55.8827 110.372 56.0465 110.33C56.2104 110.287 56.0763 110.252 55.7486 110.252C55.4209 110.252 55.2868 110.287 55.4507 110.33ZM143.88 111.322C143.724 111.649 143.632 111.916 143.675 111.916C143.791 111.916 144.308 110.873 144.23 110.795C144.193 110.758 144.035 110.995 143.88 111.322ZM9.62621 115.41C9.62621 115.503 9.73601 115.772 9.86965 116.006C10.0033 116.241 10.1131 116.356 10.1131 116.262C10.1131 116.168 10.0033 115.9 9.86965 115.665C9.73601 115.431 9.62621 115.316 9.62621 115.41ZM11.0613 118.392C11.2064 118.673 11.3639 118.903 11.4107 118.903C11.4575 118.903 11.3767 118.673 11.2315 118.392C11.0864 118.111 10.9289 117.881 10.8821 117.881C10.8353 117.881 10.9162 118.111 11.0613 118.392ZM133.708 126.359L133.121 126.998L133.76 126.411C134.354 125.864 134.477 125.72 134.346 125.72C134.318 125.72 134.031 126.008 133.708 126.359ZM32.2559 126.487C32.5734 126.815 32.8717 127.083 32.9185 127.083C32.9653 127.083 32.7436 126.815 32.4261 126.487C32.1086 126.159 31.8103 125.89 31.7634 125.89C31.7166 125.89 31.9384 126.159 32.2559 126.487ZM131.16 129.086L129.717 130.577L131.206 129.132C132.59 127.79 132.773 127.595 132.65 127.595C132.624 127.595 131.954 128.266 131.16 129.086ZM34.7243 129.128C35.3746 129.784 35.9453 130.321 35.9921 130.321C36.039 130.321 35.5448 129.784 34.8945 129.128C34.2442 128.472 33.6735 127.935 33.6267 127.935C33.5799 127.935 34.074 128.472 34.7243 129.128ZM37.2779 131.514C37.6434 131.889 37.9809 132.196 38.0278 132.196C38.0746 132.196 37.8137 131.889 37.4481 131.514C37.0825 131.139 36.745 130.833 36.6982 130.833C36.6514 130.833 36.9123 131.139 37.2779 131.514ZM128.26 131.812L127.674 132.452L128.312 131.864C128.906 131.317 129.029 131.173 128.899 131.173C128.871 131.173 128.583 131.461 128.26 131.812ZM143.155 135.136L142.655 135.689L143.208 135.189C143.512 134.914 143.761 134.664 143.761 134.635C143.761 134.503 143.621 134.619 143.155 135.136ZM22.3821 134.805C22.3821 134.835 22.6311 135.084 22.9354 135.359L23.4886 135.86L22.9886 135.306C22.5225 134.79 22.3821 134.674 22.3821 134.805ZM25.4464 138.075C26.238 138.872 26.924 139.524 26.9708 139.524C27.0177 139.524 26.4082 138.872 25.6166 138.075C24.825 137.279 24.1389 136.627 24.0921 136.627C24.0453 136.627 24.6548 137.279 25.4464 138.075ZM140.098 138.374L138.399 140.12L140.144 138.42C141.104 137.484 141.889 136.698 141.889 136.673C141.889 136.549 141.676 136.751 140.098 138.374ZM28.5106 140.972C28.8281 141.3 29.1265 141.569 29.1733 141.569C29.2201 141.569 28.9984 141.3 28.6809 140.972C28.3634 140.644 28.065 140.376 28.0182 140.376C27.9714 140.376 28.1931 140.644 28.5106 140.972ZM137.113 141.185L136.526 141.825L137.165 141.237C137.759 140.69 137.881 140.546 137.751 140.546C137.723 140.546 137.436 140.834 137.113 141.185ZM78.3497 149.017C78.5613 149.058 78.8677 149.057 79.0307 149.014C79.1933 148.971 79.0201 148.938 78.6455 148.94C78.271 148.942 78.1378 148.977 78.3497 149.017ZM87.0297 149.017C87.2404 149.058 87.5851 149.058 87.7958 149.017C88.0065 148.977 87.8341 148.943 87.4128 148.943C86.9914 148.943 86.8191 148.977 87.0297 149.017ZM82.0141 149.193C82.5559 149.227 83.3986 149.227 83.8867 149.193C84.3749 149.158 83.9314 149.131 82.9015 149.131C81.8715 149.132 81.4723 149.159 82.0141 149.193ZM121.077 152.403C120.441 152.748 120.48 152.892 121.12 152.561C121.401 152.416 121.63 152.26 121.63 152.216C121.63 152.106 121.612 152.112 121.077 152.403ZM92.7327 161.455C92.8965 161.498 93.1647 161.498 93.3285 161.455C93.4924 161.412 93.3583 161.377 93.0306 161.377C92.7029 161.377 92.5688 161.412 92.7327 161.455ZM78.7732 161.971C79.0307 162.01 79.452 162.01 79.7095 161.971C79.967 161.932 79.7563 161.9 79.2414 161.9C78.7264 161.9 78.5157 161.932 78.7732 161.971ZM86.436 161.971C86.6952 162.01 87.0782 162.009 87.2872 161.969C87.4966 161.928 87.2851 161.896 86.8169 161.897C86.3488 161.898 86.1773 161.932 86.436 161.971Z" fill="#FCFCFC"/>
    <path fill-rule="evenodd" clip-rule="evenodd" d="M80.8251 0.0540089C81.9281 0.0837743 83.6865 0.0833485 84.7326 0.0535831C85.7783 0.0238176 84.8757 -0.00041971 82.7266 5.51091e-06C80.5775 5.51091e-06 79.7216 0.0242434 80.8251 0.0540089ZM76.653 0.219845C76.9567 0.257689 77.4536 0.257689 77.7573 0.219845C78.061 0.182425 77.8125 0.151384 77.2051 0.151384C76.5978 0.151384 76.3493 0.182425 76.653 0.219845ZM88.1207 0.218994C88.3776 0.257689 88.7981 0.257689 89.0551 0.218994C89.312 0.179874 89.1018 0.147982 88.5879 0.147982C88.0739 0.147982 87.8637 0.179874 88.1207 0.218994ZM75.039 0.384405C75.2025 0.426927 75.4701 0.426927 75.6336 0.384405C75.7971 0.341457 75.6634 0.30659 75.3363 0.30659C75.0093 0.30659 74.8755 0.341457 75.039 0.384405ZM90.4163 0.387381C90.6274 0.428202 90.9332 0.426502 91.0959 0.38398C91.2581 0.341458 91.0853 0.307865 90.7115 0.309991C90.3378 0.311692 90.2048 0.34656 90.4163 0.387381ZM108.125 3.9805C108.266 4.06681 108.571 4.18928 108.805 4.25179C109.1 4.33088 109.152 4.31727 108.975 4.20756C108.835 4.12124 108.529 3.99878 108.295 3.93627C108 3.85718 107.948 3.87079 108.125 3.9805ZM118.333 8.15446C118.508 8.31094 119.508 8.77146 119.508 8.69534C119.508 8.59711 118.566 8.0911 118.384 8.0911C118.317 8.0911 118.294 8.11959 118.333 8.15446ZM81.4949 13.1504C82.3125 13.1814 83.6504 13.1814 84.468 13.1504C85.2856 13.1193 84.6167 13.0938 82.9814 13.0938C81.3462 13.0938 80.6773 13.1193 81.4949 13.1504ZM77.5024 13.3137C77.7127 13.3545 78.0567 13.3545 78.2669 13.3137C78.4772 13.2733 78.3052 13.2401 77.8847 13.2401C77.4642 13.2401 77.2922 13.2733 77.5024 13.3137ZM87.4411 13.3158C87.6981 13.3545 88.1185 13.3545 88.3755 13.3158C88.6325 13.2767 88.4222 13.2448 87.9083 13.2448C87.3944 13.2448 87.1841 13.2767 87.4411 13.3158ZM89.5648 13.4837C89.775 13.5246 90.119 13.5246 90.3293 13.4837C90.5395 13.4434 90.3675 13.4102 89.947 13.4102C89.5265 13.4102 89.3545 13.4434 89.5648 13.4837ZM127.663 13.4259C127.663 13.4727 127.892 13.6742 128.173 13.8741C128.453 14.074 128.682 14.199 128.682 14.1522C128.682 14.1054 128.453 13.9039 128.173 13.704C127.892 13.5042 127.663 13.3791 127.663 13.4259ZM91.0959 13.6543C91.307 13.6951 91.6128 13.6934 91.7755 13.6509C91.9377 13.6083 91.7648 13.5747 91.3911 13.5769C91.0173 13.5786 90.8844 13.6134 91.0959 13.6543ZM131.91 16.4786C131.91 16.5207 132.191 16.7694 132.534 17.0314C132.877 17.2933 133.104 17.4209 133.038 17.3146C132.904 17.0968 131.91 16.3604 131.91 16.4786ZM135.308 19.2C135.308 19.2293 135.557 19.4781 135.86 19.7528L136.412 20.2524L135.913 19.6996C135.448 19.1843 135.308 19.0686 135.308 19.2ZM137.17 20.8902C137.586 21.3346 137.949 21.6982 137.977 21.6982C138.105 21.6982 137.969 21.5455 137.219 20.8405L136.412 20.0823L137.17 20.8902ZM28.267 21.3155L27.6817 21.9533L28.3188 21.3673C28.9117 20.8214 29.034 20.6776 28.9041 20.6776C28.876 20.6776 28.5893 20.9647 28.267 21.3155ZM51.1692 20.9451C50.5342 21.2899 50.5729 21.4337 51.2117 21.1028C51.492 20.9578 51.7214 20.8026 51.7214 20.7584C51.7214 20.6487 51.7031 20.6551 51.1692 20.9451ZM114.242 20.7537C114.242 20.8005 114.471 20.9578 114.751 21.1028C115.032 21.2479 115.261 21.3286 115.261 21.2819C115.261 21.2351 115.032 21.0778 114.751 20.9328C114.471 20.7878 114.242 20.707 114.242 20.7537ZM48.8757 22.2263C48.3851 22.5125 47.9837 22.7859 47.9837 22.8339C47.9837 22.9283 49.4945 22.0872 49.7591 21.8457C50.0471 21.5825 49.7854 21.6952 48.8757 22.2263ZM139.81 23.399C140.647 24.241 141.37 24.9298 141.417 24.9298C141.464 24.9298 140.817 24.241 139.98 23.399C139.143 22.5571 138.42 21.8682 138.373 21.8682C138.327 21.8682 138.973 22.5571 139.81 23.399ZM25.5521 23.8668L24.6236 24.8448L25.6005 23.9153C26.1378 23.4037 26.5774 22.9636 26.5774 22.9373C26.5774 22.811 26.4151 22.9581 25.5521 23.8668ZM43.8214 25.54L43.3117 25.9784L43.8639 25.6127C44.1676 25.4116 44.416 25.2139 44.416 25.1735C44.416 25.0459 44.3442 25.0906 43.8214 25.54ZM23.1702 26.4181L22.5849 27.0559L23.222 26.47C23.8149 25.924 23.9373 25.7803 23.8073 25.7803C23.7793 25.7803 23.4926 26.0673 23.1702 26.4181ZM42.5408 26.473L41.9526 26.9956L42.5897 26.5376C43.1529 26.1332 43.3359 25.9504 43.1779 25.9504C43.1512 25.9504 42.8645 26.1855 42.5408 26.473ZM142.868 26.6307C143.233 27.0049 143.57 27.3111 143.617 27.3111C143.663 27.3111 143.403 27.0049 143.038 26.6307C142.673 26.2565 142.337 25.9504 142.29 25.9504C142.243 25.9504 142.503 26.2565 142.868 26.6307ZM123.246 26.3471C123.246 26.3939 123.552 26.6745 123.925 26.9709C124.299 27.2673 124.605 27.4714 124.605 27.4246C124.605 27.3778 124.299 27.0972 123.925 26.8008C123.552 26.5044 123.246 26.3003 123.246 26.3471ZM144.312 28.2466C144.629 28.574 144.927 28.8419 144.974 28.8419C145.02 28.8419 144.799 28.574 144.482 28.2466C144.165 27.9191 143.868 27.6512 143.821 27.6512C143.774 27.6512 143.995 27.9191 144.312 28.2466ZM145.671 29.8624C146.063 30.3301 146.421 30.7128 146.467 30.7128C146.514 30.7128 146.233 30.3301 145.841 29.8624C145.45 29.3946 145.092 29.012 145.045 29.012C144.999 29.012 145.28 29.3946 145.671 29.8624ZM128.427 30.7128C128.887 31.1806 129.302 31.5633 129.349 31.5633C129.396 31.5633 129.057 31.1806 128.597 30.7128C128.137 30.2451 127.722 29.8624 127.676 29.8624C127.629 29.8624 127.968 30.2451 128.427 30.7128ZM37.3574 30.7554L36.6859 31.4782L37.408 30.806C37.8051 30.436 38.13 30.1107 38.13 30.0831C38.13 29.9542 37.9822 30.0831 37.3574 30.7554ZM131.146 33.2642C131.795 33.919 132.364 34.4548 132.411 34.4548C132.458 34.4548 131.965 33.919 131.316 33.2642C130.667 32.6093 130.097 32.0735 130.05 32.0735C130.004 32.0735 130.497 32.6093 131.146 33.2642ZM147.954 32.81C148.216 33.1532 148.465 33.4342 148.507 33.4342C148.625 33.4342 147.889 32.4392 147.672 32.3049C147.565 32.239 147.693 32.4664 147.954 32.81ZM34.5564 33.3917L33.6279 34.3697L34.6048 33.4402C35.5124 32.5762 35.6594 32.4137 35.5332 32.4137C35.5069 32.4137 35.0673 32.8538 34.5564 33.3917ZM148.899 34.1146C149.099 34.3952 149.3 34.6249 149.347 34.6249C149.394 34.6249 149.269 34.3952 149.069 34.1146C148.87 33.834 148.668 33.6043 148.622 33.6043C148.575 33.6043 148.7 33.834 148.899 34.1146ZM133.184 35.4753C133.644 35.943 134.059 36.3257 134.106 36.3257C134.153 36.3257 133.814 35.943 133.354 35.4753C132.894 35.0076 132.479 34.6249 132.433 34.6249C132.386 34.6249 132.724 35.0076 133.184 35.4753ZM32.5236 35.5603C32.1108 35.9813 31.8113 36.3257 31.858 36.3257C31.9048 36.3257 32.2807 35.9813 32.6935 35.5603C33.1063 35.1394 33.4058 34.795 33.359 34.795C33.3123 34.795 32.9364 35.1394 32.5236 35.5603ZM150.167 35.943C150.429 36.3406 150.676 36.6659 150.716 36.6659C150.838 36.6659 150.188 35.6309 149.932 35.4196C149.8 35.3099 149.905 35.5455 150.167 35.943ZM67.1501 46.8287C68.8613 46.8563 71.6136 46.8563 73.2662 46.8283C74.9188 46.8006 73.5185 46.7777 70.1546 46.7781C66.7908 46.7781 65.4389 46.8006 67.1501 46.8287ZM60.6832 46.9958C61.0803 47.0315 61.7301 47.0315 62.1272 46.9958C62.5243 46.9601 62.1994 46.9307 61.4052 46.9307C60.611 46.9307 60.286 46.9601 60.6832 46.9958ZM78.6067 46.9962C79.0506 47.0311 79.7769 47.0311 80.2207 46.9962C80.6645 46.9614 80.3014 46.9324 79.4137 46.9324C78.526 46.9324 78.1629 46.9614 78.6067 46.9962ZM57.3703 47.165C57.7207 47.202 58.294 47.202 58.6445 47.165C58.9949 47.1285 58.7082 47.0983 58.0074 47.0983C57.3066 47.0983 57.0199 47.1285 57.3703 47.165ZM82.1766 47.1633C82.4352 47.2025 82.8175 47.2016 83.026 47.1612C83.235 47.1208 83.0239 47.0885 82.5567 47.0898C82.0895 47.0911 81.9184 47.1242 82.1766 47.1633ZM9.10615 47.6438C8.82158 48.2693 8.87594 48.4029 9.18345 47.8343C9.32743 47.5686 9.41323 47.3194 9.37415 47.2807C9.3355 47.2416 9.21488 47.4053 9.10615 47.6438ZM54.9918 47.3288C55.1553 47.3713 55.4229 47.3713 55.5864 47.3288C55.7499 47.2858 55.6161 47.2509 55.2891 47.2509C54.962 47.2509 54.8283 47.2858 54.9918 47.3288ZM84.8099 47.3317C85.021 47.3726 85.3268 47.3708 85.4895 47.3283C85.6517 47.2858 85.4789 47.2522 85.1051 47.2543C84.7313 47.256 84.5984 47.2909 84.8099 47.3317ZM48.8757 47.839C49.0392 47.8815 49.3068 47.8815 49.4703 47.839C49.6338 47.7961 49.5 47.7612 49.173 47.7612C48.8459 47.7612 48.7122 47.7961 48.8757 47.839ZM47.0939 48.0121C47.305 48.0529 47.6108 48.0512 47.7735 48.0087C47.9358 47.9662 47.7629 47.9326 47.3891 47.9347C47.0154 47.9364 46.8824 47.9713 47.0939 48.0121ZM92.0282 48.0091C92.1917 48.0516 92.4593 48.0516 92.6228 48.0091C92.7863 47.9662 92.6525 47.9313 92.3255 47.9313C91.9984 47.9313 91.8647 47.9662 92.0282 48.0091ZM157.236 48.8272C157.236 48.9208 157.346 49.1887 157.479 49.4225C157.612 49.6564 157.722 49.7712 157.722 49.6777C157.722 49.5841 157.612 49.3162 157.479 49.0824C157.346 48.8485 157.236 48.7337 157.236 48.8272ZM21.6824 51.7268C21.1706 52.7818 21.2279 52.9293 21.755 51.9148C21.9907 51.461 22.1547 51.0609 22.119 51.0256C22.0833 50.9899 21.8871 51.3054 21.6824 51.7268ZM38.2069 51.9896C38.0574 52.2792 37.9652 52.5458 38.0022 52.5828C38.0391 52.6198 38.1963 52.3829 38.3517 52.0568C38.7009 51.3233 38.5798 51.2671 38.2069 51.9896ZM6.97613 52.8205C6.5926 53.7798 6.65206 53.9226 7.05555 53.0122C7.23776 52.6011 7.35626 52.2341 7.31931 52.1971C7.28236 52.1601 7.12818 52.4408 6.97613 52.8205ZM37.5014 55.0354C37.5014 55.55 37.5333 55.7605 37.5724 55.5032C37.611 55.2459 37.611 54.825 37.5724 54.5677C37.5333 54.3105 37.5014 54.5209 37.5014 55.0354ZM125.978 56.7997C126.153 56.9562 127.153 57.4167 127.153 57.3406C127.153 57.2423 126.211 56.7363 126.029 56.7363C125.962 56.7363 125.939 56.7648 125.978 56.7997ZM37.9601 57.4817C37.9601 57.6642 38.4656 58.6073 38.5637 58.6073C38.6104 58.6073 38.5221 58.3585 38.3675 58.0545C38.0523 57.4337 37.9601 57.3044 37.9601 57.4817ZM39.312 59.5003C40.0163 60.2512 40.1687 60.3864 40.1687 60.2584C40.1687 60.2312 39.8056 59.8677 39.3617 59.4505L38.5548 58.6923L39.312 59.5003ZM18.4413 59.8166C18.3368 60.1173 18.2807 60.3932 18.3173 60.4294C18.3538 60.4659 18.4689 60.2495 18.5738 59.9493C18.6783 59.6487 18.7343 59.3727 18.6978 59.3366C18.6613 59.3 18.5462 59.5164 18.4413 59.8166ZM69.5175 59.9242C70.195 59.9565 71.3035 59.9565 71.981 59.9242C72.6584 59.8919 72.1041 59.8655 70.7492 59.8655C69.3943 59.8655 68.8401 59.8919 69.5175 59.9242ZM62.3867 60.0926C62.786 60.1287 63.3976 60.1283 63.7459 60.0917C64.0937 60.0552 63.7667 60.0258 63.0192 60.0263C62.2716 60.0271 61.9871 60.0569 62.3867 60.0926ZM76.6585 60.0934C77.1525 60.1279 77.917 60.1279 78.3574 60.0926C78.7983 60.0577 78.3944 60.0297 77.46 60.0301C76.5256 60.0305 76.165 60.059 76.6585 60.0934ZM58.5595 60.2601C58.8165 60.2988 59.2369 60.2988 59.4939 60.2601C59.7509 60.221 59.5406 60.1891 59.0267 60.1891C58.5128 60.1891 58.3025 60.221 58.5595 60.2601ZM81.6648 60.2555C81.8283 60.298 82.0959 60.298 82.2594 60.2555C82.4229 60.2125 82.2891 60.1776 81.9621 60.1776C81.6351 60.1776 81.5013 60.2125 81.6648 60.2555ZM40.6546 60.6382C40.8755 60.8308 41.1367 60.9885 41.2352 60.9885C41.4442 60.9885 41.434 60.98 40.7633 60.5867L40.2537 60.2882L40.6546 60.6382ZM55.9283 60.4285C56.1394 60.4693 56.4452 60.4676 56.6079 60.4251C56.7701 60.3826 56.5973 60.349 56.2235 60.3511C55.8497 60.3528 55.7168 60.3877 55.9283 60.4285ZM83.5336 60.4302C83.7906 60.4689 84.211 60.4689 84.468 60.4302C84.725 60.3911 84.5147 60.3592 84.0008 60.3592C83.4869 60.3592 83.2766 60.3911 83.5336 60.4302ZM53.8047 60.6003C54.0633 60.6394 54.4456 60.6386 54.6541 60.5982C54.8631 60.5578 54.652 60.5255 54.1848 60.5267C53.7176 60.528 53.5464 60.5612 53.8047 60.6003ZM85.7443 60.6003C86.003 60.6394 86.3852 60.6386 86.5938 60.5982C86.8027 60.5578 86.5916 60.5255 86.1244 60.5267C85.6572 60.528 85.4861 60.5612 85.7443 60.6003ZM52.0208 60.7687C52.2319 60.8095 52.5377 60.8078 52.7004 60.7653C52.8626 60.7228 52.6897 60.6892 52.316 60.6913C51.9422 60.693 51.8093 60.7279 52.0208 60.7687ZM87.5282 60.7687C87.7393 60.8095 88.0451 60.8078 88.2077 60.7653C88.37 60.7228 88.1971 60.6892 87.8234 60.6913C87.4496 60.693 87.3167 60.7279 87.5282 60.7687ZM50.0649 60.9358C50.2284 60.9783 50.496 60.9783 50.6595 60.9358C50.8231 60.8929 50.6893 60.858 50.3622 60.858C50.0352 60.858 49.9014 60.8929 50.0649 60.9358ZM89.2271 60.9388C89.4382 60.9796 89.744 60.9779 89.9067 60.9354C90.0689 60.8929 89.896 60.8593 89.5223 60.8614C89.1485 60.8631 89.0156 60.898 89.2271 60.9388ZM43.609 61.6208C43.866 61.6595 44.2865 61.6595 44.5434 61.6208C44.8004 61.5817 44.5902 61.5498 44.0762 61.5498C43.5623 61.5498 43.3521 61.5817 43.609 61.6208ZM95.5959 61.7863C95.7594 61.8288 96.027 61.8288 96.1905 61.7863C96.354 61.7433 96.2203 61.7084 95.8932 61.7084C95.5662 61.7084 95.4324 61.7433 95.5959 61.7863ZM130.098 62.8595C130.098 63.5611 130.129 63.8481 130.165 63.4973C130.202 63.1465 130.202 62.5725 130.165 62.2217C130.129 61.8709 130.098 62.1579 130.098 62.8595ZM149.268 66.7715C149.277 67.2133 149.544 67.9392 149.55 67.5369C149.553 67.3498 149.489 67.0437 149.409 66.8566C149.319 66.6482 149.265 66.6151 149.268 66.7715ZM118.489 67.8771C118.722 68.0106 118.99 68.1203 119.083 68.1203C119.177 68.1203 119.062 68.0106 118.829 67.8771C118.595 67.7436 118.327 67.6339 118.234 67.6339C118.141 67.6339 118.255 67.7436 118.489 67.8771ZM2.83205 69.1528C2.83205 69.4802 2.86687 69.6141 2.90977 69.4504C2.95224 69.2867 2.95224 69.0188 2.90977 68.8551C2.86687 68.6914 2.83205 68.8254 2.83205 69.1528ZM123.033 69.4457C123.337 69.4836 123.834 69.4836 124.138 69.4457C124.441 69.4083 124.193 69.3773 123.586 69.3773C122.978 69.3773 122.73 69.4083 123.033 69.4457ZM71.5618 72.1697C72.0557 72.2042 72.8202 72.2041 73.2607 72.1689C73.7015 72.134 73.2976 72.1059 72.3632 72.1064C71.4288 72.1068 71.0682 72.1353 71.5618 72.1697ZM62.5566 72.339C62.9559 72.3751 63.5675 72.3747 63.9158 72.3381C64.2636 72.3015 63.9366 72.2722 63.1891 72.2726C62.4415 72.2735 62.157 72.3032 62.5566 72.339ZM77.3381 72.3398C77.832 72.3742 78.5965 72.3742 79.037 72.339C79.4779 72.3041 79.0739 72.276 78.1395 72.2764C77.2051 72.2769 76.8445 72.3054 77.3381 72.3398ZM58.9889 72.509C59.3882 72.5452 59.9998 72.5448 60.348 72.5082C60.6959 72.4716 60.3689 72.4423 59.6213 72.4427C58.8738 72.4436 58.5892 72.4733 58.9889 72.509ZM80.8965 72.5073C81.198 72.5448 81.7332 72.5456 82.0857 72.5086C82.4382 72.4716 82.1915 72.441 81.5374 72.4402C80.8833 72.4393 80.5949 72.4695 80.8965 72.5073ZM150.298 72.8947C150.298 73.2221 150.333 73.3561 150.376 73.1924C150.418 73.0287 150.418 72.7608 150.376 72.5971C150.333 72.4333 150.298 72.5673 150.298 72.8947ZM56.5208 72.6766C56.7778 72.7153 57.1982 72.7153 57.4552 72.6766C57.7122 72.6375 57.5019 72.6056 56.988 72.6056C56.4741 72.6056 56.2638 72.6375 56.5208 72.6766ZM83.2788 72.6745C83.489 72.7153 83.833 72.7153 84.0433 72.6745C84.2535 72.6341 84.0815 72.6009 83.661 72.6009C83.2405 72.6009 83.0685 72.6341 83.2788 72.6745ZM2.32577 73.49C2.32747 73.8642 2.36229 73.9973 2.40307 73.7856C2.44384 73.5742 2.44214 73.2681 2.39967 73.1052C2.3572 72.9428 2.32364 73.1158 2.32577 73.49ZM163.553 73.49C163.555 73.8642 163.59 73.9973 163.63 73.7856C163.671 73.5742 163.669 73.2681 163.627 73.1052C163.584 72.9428 163.551 73.1158 163.553 73.49ZM50.8316 73.1851C51.0426 73.226 51.3485 73.2243 51.5111 73.1817C51.6734 73.1392 51.5005 73.1056 51.1267 73.1077C50.753 73.1095 50.62 73.1443 50.8316 73.1851ZM49.2155 73.3522C49.379 73.3948 49.6466 73.3948 49.8101 73.3522C49.9736 73.3093 49.8398 73.2744 49.5128 73.2744C49.1857 73.2744 49.0519 73.3093 49.2155 73.3522ZM90.5862 73.3552C90.7973 73.396 91.1031 73.3943 91.2658 73.3518C91.428 73.3093 91.2552 73.2757 90.8814 73.2778C90.5077 73.2795 90.3747 73.3144 90.5862 73.3552ZM92.0282 73.5223C92.1917 73.5649 92.4593 73.5649 92.6228 73.5223C92.7863 73.4794 92.6525 73.4445 92.3255 73.4445C91.9984 73.4445 91.8647 73.4794 92.0282 73.5223ZM46.6671 73.6924C46.8306 73.7349 47.0982 73.7349 47.2617 73.6924C47.4252 73.6495 47.2914 73.6146 46.9644 73.6146C46.6374 73.6146 46.5036 73.6495 46.6671 73.6924ZM150.477 74.5106C150.478 74.9783 150.511 75.1497 150.55 74.8911C150.589 74.6322 150.589 74.2495 150.548 74.0407C150.508 73.8315 150.476 74.0428 150.477 74.5106ZM15.4074 74.5106C15.4091 74.8847 15.444 75.0178 15.4847 74.8061C15.5255 74.5947 15.5238 74.2886 15.4813 74.1257C15.4389 73.9633 15.4053 74.1364 15.4074 74.5106ZM2.16395 75.7862C2.16395 76.3007 2.1958 76.5112 2.23488 76.254C2.27353 75.9967 2.27353 75.5757 2.23488 75.3185C2.1958 75.0612 2.16395 75.2717 2.16395 75.7862ZM42.2843 75.6586L41.6128 76.3815L42.3348 75.7092C42.732 75.3393 43.0569 75.014 43.0569 74.9864C43.0569 74.8575 42.9091 74.9864 42.2843 75.6586ZM163.728 75.8713C163.73 76.339 163.763 76.5104 163.802 76.2518C163.841 75.9929 163.84 75.6102 163.8 75.4014C163.759 75.1922 163.727 75.4035 163.728 75.8713ZM150.649 76.2965C150.649 76.811 150.681 77.0215 150.72 76.7642C150.759 76.507 150.759 76.086 150.72 75.8287C150.681 75.5715 150.649 75.782 150.649 76.2965ZM15.2503 76.7217C15.2511 77.3765 15.2817 77.6236 15.3187 77.2707C15.3556 76.9177 15.3548 76.382 15.3174 76.08C15.2796 75.7781 15.2494 76.0669 15.2503 76.7217ZM2 79.8683C2 80.5699 2.03016 80.857 2.06668 80.5062C2.10363 80.1553 2.10363 79.5813 2.06668 79.2305C2.03016 78.8797 2 79.1667 2 79.8683ZM163.919 81.4842C163.919 82.9809 163.945 83.5703 163.976 82.7943C164.008 82.0182 164.008 80.7936 163.976 80.0729C163.944 79.3521 163.918 79.9874 163.919 81.4842ZM150.832 80.8038C150.832 81.8328 150.86 82.2317 150.894 81.6904C150.928 81.1491 150.928 80.3072 150.893 79.8194C150.859 79.3317 150.832 79.7748 150.832 80.8038ZM40.387 80.2936C40.3883 80.7613 40.4214 80.9327 40.4605 80.6741C40.4996 80.4152 40.4987 80.0325 40.4584 79.8237C40.418 79.6145 40.3858 79.8258 40.387 80.2936ZM15.0842 81.3991C15.0842 82.1943 15.1135 82.5196 15.1492 82.122C15.1849 81.7244 15.1849 81.0738 15.1492 80.6762C15.1135 80.2787 15.0842 80.604 15.0842 81.3991ZM122.736 82.3027C122.736 82.3321 122.985 82.5808 123.288 82.8555L123.84 83.3551L123.341 82.8024C122.876 82.287 122.736 82.1713 122.736 82.3027ZM41.8676 84.5139C41.8676 84.5432 42.1161 84.792 42.4198 85.0667L42.9719 85.5663L42.4729 85.0135C42.0078 84.4981 41.8676 84.3825 41.8676 84.5139ZM150.653 85.4812C150.653 86.0893 150.684 86.3381 150.721 86.034C150.759 85.73 150.759 85.2325 150.721 84.9285C150.684 84.6244 150.653 84.8732 150.653 85.4812ZM15.2456 85.4812C15.2456 85.9958 15.2775 86.2062 15.3165 85.949C15.3552 85.6917 15.3552 85.2708 15.3165 85.0135C15.2775 84.7562 15.2456 84.9667 15.2456 85.4812ZM2.15588 85.9065C2.15757 86.2807 2.1924 86.4137 2.23318 86.202C2.27395 85.9907 2.27225 85.6845 2.22978 85.5216C2.18731 85.3592 2.15375 85.5323 2.15588 85.9065ZM65.0205 85.4366C65.4673 85.4715 66.1554 85.471 66.5495 85.4353C66.9437 85.3996 66.5784 85.3711 65.7374 85.3715C64.8965 85.372 64.5737 85.4013 65.0205 85.4366ZM75.0441 85.4366C75.4909 85.4715 76.179 85.471 76.5731 85.4353C76.9673 85.3996 76.602 85.3711 75.761 85.3715C74.9201 85.372 74.5973 85.4013 75.0441 85.4366ZM163.733 86.2466C163.734 86.8079 163.765 87.0171 163.803 86.7114C163.841 86.4057 163.84 85.9464 163.801 85.6909C163.763 85.4353 163.732 85.6853 163.733 86.2466ZM60.8552 85.6016C61.0663 85.6424 61.3721 85.6407 61.5347 85.5982C61.697 85.5556 61.5241 85.5221 61.1504 85.5242C60.7766 85.5259 60.6437 85.5608 60.8552 85.6016ZM79.883 85.6016C80.0941 85.6424 80.3999 85.6407 80.5626 85.5982C80.7249 85.5556 80.552 85.5221 80.1782 85.5242C79.8045 85.5259 79.6715 85.5608 79.883 85.6016ZM57.8799 85.7687C58.0435 85.8112 58.311 85.8112 58.4746 85.7687C58.6381 85.7257 58.5043 85.6909 58.1772 85.6909C57.8502 85.6909 57.7164 85.7257 57.8799 85.7687ZM55.7563 85.9413C55.9665 85.9821 56.3106 85.9821 56.5208 85.9413C56.731 85.9009 56.559 85.8678 56.1386 85.8678C55.7181 85.8678 55.546 85.9009 55.7563 85.9413ZM84.64 85.9417C84.8511 85.9826 85.1569 85.9809 85.3196 85.9383C85.4818 85.8958 85.309 85.8622 84.9352 85.8644C84.5614 85.8661 84.4285 85.9009 84.64 85.9417ZM53.7176 86.1114C53.9278 86.1522 54.2719 86.1522 54.4821 86.1114C54.6923 86.071 54.5203 86.0379 54.0998 86.0379C53.6794 86.0379 53.5074 86.071 53.7176 86.1114ZM86.4218 86.1089C86.5853 86.1514 86.8529 86.1514 87.0164 86.1089C87.1799 86.0659 87.0461 86.0311 86.7191 86.0311C86.392 86.0311 86.2582 86.0659 86.4218 86.1089ZM51.9337 86.279C52.0973 86.3215 52.3648 86.3215 52.5284 86.279C52.6919 86.236 52.5581 86.2011 52.231 86.2011C51.904 86.2011 51.7702 86.236 51.9337 86.279ZM87.7809 86.279C87.9444 86.3215 88.212 86.3215 88.3755 86.279C88.539 86.236 88.4052 86.2011 88.0782 86.2011C87.7512 86.2011 87.6174 86.236 87.7809 86.279ZM124.984 86.6719C124.984 86.9993 125.019 87.1332 125.062 86.9695C125.104 86.8058 125.104 86.5379 125.062 86.3742C125.019 86.2105 124.984 86.3444 124.984 86.6719ZM15.4074 87.2672C15.4091 87.6414 15.444 87.7745 15.4847 87.5627C15.5255 87.3514 15.5238 87.0452 15.4813 86.8823C15.4389 86.7199 15.4053 86.893 15.4074 87.2672ZM150.471 87.6073C150.473 87.9815 150.508 88.1146 150.549 87.9029C150.589 87.6915 150.588 87.3854 150.545 87.2225C150.503 87.0601 150.469 87.2331 150.471 87.6073ZM124.984 88.0326C124.984 88.36 125.019 88.4939 125.062 88.3302C125.104 88.1665 125.104 87.8986 125.062 87.7349C125.019 87.5712 124.984 87.7051 124.984 88.0326ZM2.32577 88.2877C2.32747 88.6619 2.36229 88.795 2.40307 88.5832C2.44384 88.3719 2.44214 88.0657 2.39967 87.9029C2.3572 87.7404 2.32364 87.9135 2.32577 88.2877ZM163.553 88.4578C163.555 88.832 163.59 88.9651 163.63 88.7533C163.671 88.542 163.669 88.2358 163.627 88.073C163.584 87.9105 163.551 88.0836 163.553 88.4578ZM2.49226 90.2437C2.49226 90.5711 2.52709 90.7051 2.56999 90.5414C2.61246 90.3776 2.61246 90.1098 2.56999 89.9461C2.52709 89.7823 2.49226 89.9163 2.49226 90.2437ZM118.194 93.9376C118.452 93.9767 118.835 93.9759 119.043 93.9355C119.252 93.8951 119.041 93.8628 118.574 93.864C118.107 93.8653 117.935 93.8985 118.194 93.9376ZM67.2338 96.6641C68.3368 96.6939 70.0952 96.6935 71.1413 96.6637C72.187 96.6339 71.2844 96.6097 69.1353 96.6101C66.9861 96.6101 66.1303 96.6343 67.2338 96.6641ZM61.6176 96.8308C61.968 96.8678 62.5413 96.8678 62.8917 96.8308C63.2421 96.7942 62.9555 96.764 62.2547 96.764C61.5538 96.764 61.2672 96.7942 61.6176 96.8308ZM75.2089 96.8308C75.5593 96.8678 76.1327 96.8678 76.4831 96.8308C76.8335 96.7942 76.5468 96.764 75.846 96.764C75.1452 96.764 74.8585 96.7942 75.2089 96.8308ZM58.131 97C58.4325 97.0375 58.9677 97.0383 59.3202 97.0013C59.6727 96.9643 59.426 96.9337 58.7719 96.9329C58.1178 96.932 57.8294 96.9622 58.131 97ZM78.7766 96.9992C79.0336 97.0379 79.4541 97.0379 79.711 96.9992C79.968 96.9601 79.7578 96.9282 79.2438 96.9282C78.7299 96.9282 78.5197 96.9601 78.7766 96.9992ZM56.0111 97.1693C56.2681 97.208 56.6886 97.208 56.9455 97.1693C57.2025 97.1302 56.9923 97.0983 56.4783 97.0983C55.9644 97.0983 55.7542 97.1302 56.0111 97.1693ZM80.9852 97.1693C81.2422 97.208 81.6627 97.208 81.9196 97.1693C82.1766 97.1302 81.9663 97.0983 81.4524 97.0983C80.9385 97.0983 80.7283 97.1302 80.9852 97.1693ZM53.8875 97.3372C54.0977 97.3781 54.4418 97.3781 54.652 97.3372C54.8622 97.2968 54.6902 97.2637 54.2697 97.2637C53.8493 97.2637 53.6772 97.2968 53.8875 97.3372ZM83.1089 97.3372C83.3191 97.3781 83.6631 97.3781 83.8734 97.3372C84.0836 97.2968 83.9116 97.2637 83.4911 97.2637C83.0706 97.2637 82.8986 97.2968 83.1089 97.3372ZM52.1907 97.5078C52.4018 97.5486 52.7076 97.5469 52.8703 97.5043C53.0325 97.4618 52.8596 97.4282 52.4859 97.4304C52.1121 97.4321 51.9792 97.4669 52.1907 97.5078ZM84.7228 97.5048C84.8864 97.5473 85.1539 97.5473 85.3175 97.5048C85.481 97.4618 85.3472 97.427 85.0201 97.427C84.6931 97.427 84.5593 97.4618 84.7228 97.5048ZM44.6377 99.1857L44.1612 99.6232L44.7133 99.2388C45.017 99.0275 45.2655 98.8302 45.2655 98.8013C45.2655 98.6669 45.0778 98.7821 44.6377 99.1857ZM148.147 99.5259C148.084 99.775 148.066 100.012 148.106 100.052C148.146 100.092 148.23 99.9209 148.292 99.6713C148.355 99.4221 148.374 99.1852 148.334 99.1453C148.293 99.1053 148.21 99.2763 148.147 99.5259ZM100.65 100.279C101.231 100.465 101.678 100.465 101.245 100.279C101.058 100.199 100.752 100.135 100.565 100.138C100.292 100.142 100.309 100.17 100.65 100.279ZM147.135 102.765C146.985 103.207 146.891 103.598 146.927 103.634C146.963 103.67 147.116 103.338 147.266 102.896C147.416 102.454 147.51 102.063 147.474 102.027C147.438 101.991 147.285 102.323 147.135 102.765ZM112.896 104.424C113.071 104.581 114.072 105.041 114.072 104.965C114.072 104.867 113.13 104.361 112.947 104.361C112.881 104.361 112.858 104.39 112.896 104.424ZM115.763 106.36C116.079 106.757 116.368 107.082 116.405 107.082C116.525 107.082 115.797 106.125 115.488 105.877C115.324 105.745 115.448 105.962 115.763 106.36ZM43.7365 109.209C44.0533 109.536 44.351 109.804 44.3978 109.804C44.4445 109.804 44.2232 109.536 43.9063 109.209C43.5895 108.881 43.2918 108.613 43.245 108.613C43.1983 108.613 43.4196 108.881 43.7365 109.209ZM21.3226 109.379C21.3226 109.472 21.4322 109.74 21.5656 109.974C21.6989 110.208 21.8085 110.323 21.8085 110.229C21.8085 110.136 21.6989 109.868 21.5656 109.634C21.4322 109.4 21.3226 109.285 21.3226 109.379ZM144.174 110.067C143.663 111.122 143.72 111.27 144.247 110.255C144.483 109.801 144.647 109.401 144.611 109.366C144.575 109.33 144.379 109.646 144.174 110.067ZM63.1517 109.929C63.5985 109.964 64.2866 109.964 64.6807 109.928C65.0749 109.892 64.7096 109.864 63.8686 109.864C63.0277 109.865 62.7049 109.894 63.1517 109.929ZM73.9347 109.928C74.3318 109.964 74.9817 109.964 75.3788 109.928C75.7759 109.893 75.451 109.863 74.6567 109.863C73.8625 109.863 73.5376 109.893 73.9347 109.928ZM59.6638 110.094C59.874 110.135 60.2181 110.135 60.4283 110.094C60.6386 110.053 60.4665 110.02 60.0461 110.02C59.6256 110.02 59.4536 110.053 59.6638 110.094ZM77.8422 110.094C78.0525 110.135 78.3965 110.135 78.6067 110.094C78.817 110.053 78.645 110.02 78.2245 110.02C77.804 110.02 77.632 110.053 77.8422 110.094ZM57.1175 110.264C57.3286 110.305 57.6344 110.303 57.7971 110.261C57.9594 110.218 57.7865 110.185 57.4127 110.187C57.039 110.189 56.906 110.224 57.1175 110.264ZM80.3927 110.264C80.6038 110.305 80.9096 110.303 81.0723 110.261C81.2345 110.218 81.0617 110.185 80.6879 110.187C80.3141 110.189 80.1812 110.224 80.3927 110.264ZM54.824 110.436C55.0827 110.475 55.4649 110.474 55.6735 110.434C55.8824 110.394 55.6713 110.361 55.2041 110.363C54.7369 110.364 54.5658 110.397 54.824 110.436ZM82.2594 110.434C82.4696 110.475 82.8137 110.475 83.0239 110.434C83.2342 110.394 83.0621 110.36 82.6417 110.36C82.2212 110.36 82.0492 110.394 82.2594 110.434ZM53.038 110.604C53.2483 110.645 53.5923 110.645 53.8025 110.604C54.0128 110.564 53.8408 110.531 53.4203 110.531C52.9998 110.531 52.8278 110.564 53.038 110.604ZM83.9604 110.605C84.1715 110.645 84.4773 110.644 84.64 110.601C84.8023 110.559 84.6294 110.525 84.2556 110.527C83.8819 110.529 83.7489 110.564 83.9604 110.605ZM51.5939 110.772C51.7575 110.814 52.025 110.814 52.1886 110.772C52.3521 110.729 52.2183 110.694 51.8913 110.694C51.5642 110.694 51.4304 110.729 51.5939 110.772ZM85.4024 110.772C85.5659 110.814 85.8335 110.814 85.997 110.772C86.1605 110.729 86.0267 110.694 85.6997 110.694C85.3727 110.694 85.2389 110.729 85.4024 110.772ZM47.8563 111.118C48.2067 111.155 48.7801 111.155 49.1305 111.118C49.4809 111.082 49.1942 111.051 48.4934 111.051C47.7926 111.051 47.5059 111.082 47.8563 111.118ZM22.5849 112.015C22.7298 112.296 22.8869 112.525 22.9336 112.525C22.9804 112.525 22.8997 112.296 22.7548 112.015C22.61 111.734 22.4528 111.505 22.4061 111.505C22.3594 111.505 22.4401 111.734 22.5849 112.015ZM8.24097 112.27C8.24097 112.364 8.35055 112.632 8.48392 112.865C8.61728 113.099 8.72686 113.214 8.72686 113.121C8.72686 113.027 8.61728 112.759 8.48392 112.525C8.35055 112.291 8.24097 112.177 8.24097 112.27ZM100.565 113.886C100.752 113.966 101.02 114.032 101.16 114.032C101.32 114.032 101.289 113.978 101.075 113.886C100.888 113.806 100.62 113.74 100.48 113.74C100.32 113.74 100.351 113.794 100.565 113.886ZM15.4822 125.805C15.6512 126.093 15.898 126.418 16.0305 126.528C16.163 126.638 16.0577 126.402 15.7956 126.005C15.2456 125.17 15.0286 125.032 15.4822 125.805ZM32.6085 126.473C33.0685 126.94 33.4835 127.323 33.5302 127.323C33.5769 127.323 33.2384 126.94 32.7784 126.473C32.3185 126.005 31.9035 125.622 31.8568 125.622C31.8101 125.622 32.1486 126.005 32.6085 126.473ZM133.43 126.26L132.845 126.898L133.482 126.312C134.075 125.766 134.197 125.622 134.067 125.622C134.039 125.622 133.752 125.909 133.43 126.26ZM16.8936 127.833C17.0932 128.114 17.2945 128.343 17.3412 128.343C17.3879 128.343 17.2631 128.114 17.0635 127.833C16.8638 127.553 16.6625 127.323 16.6158 127.323C16.5691 127.323 16.6939 127.553 16.8936 127.833ZM130.888 128.981L129.277 130.64L130.933 129.027C131.844 128.14 132.59 127.394 132.59 127.369C132.59 127.246 132.383 127.441 130.888 128.981ZM34.8171 128.854C35.3718 129.415 35.8641 129.874 35.9108 129.874C35.9575 129.874 35.5417 129.415 34.987 128.854C34.4323 128.292 33.9401 127.833 33.8934 127.833C33.8466 127.833 34.2624 128.292 34.8171 128.854ZM17.7392 129.019C17.9371 129.296 18.1856 129.577 18.2913 129.643C18.3975 129.709 18.2701 129.481 18.0085 129.138C17.4406 128.392 17.2265 128.298 17.7392 129.019ZM37.2733 131.107C37.69 131.552 38.0531 131.915 38.0803 131.915C38.2082 131.915 38.0731 131.763 37.323 131.058L36.5161 130.299L37.2733 131.107ZM127.907 131.788L127.408 132.341L127.96 131.841C128.264 131.566 128.512 131.317 128.512 131.288C128.512 131.157 128.372 131.272 127.907 131.788ZM21.4806 133.701C21.7975 134.029 22.0952 134.297 22.1419 134.297C22.1887 134.297 21.9674 134.029 21.6505 133.701C21.3337 133.374 21.0359 133.106 20.9892 133.106C20.9425 133.106 21.1638 133.374 21.4806 133.701ZM23.0097 135.402C23.3265 135.73 23.6242 135.997 23.671 135.997C23.7177 135.997 23.4964 135.73 23.1796 135.402C22.8627 135.075 22.565 134.807 22.5182 134.807C22.4715 134.807 22.6928 135.075 23.0097 135.402ZM142.774 135.445L142.189 136.082L142.826 135.497C143.419 134.951 143.541 134.807 143.411 134.807C143.383 134.807 143.096 135.094 142.774 135.445ZM121.972 136.438L121.462 136.876L122.014 136.51C122.318 136.309 122.566 136.111 122.566 136.071C122.566 135.943 122.494 135.988 121.972 136.438ZM25.8978 138.464C26.6878 139.259 27.3725 139.909 27.4192 139.909C27.4659 139.909 26.8577 139.259 26.0677 138.464C25.2777 137.669 24.5931 137.018 24.5463 137.018C24.4996 137.018 25.1078 137.669 25.8978 138.464ZM139.891 138.506L138.451 139.995L139.938 138.553C141.318 137.213 141.501 137.018 141.378 137.018C141.352 137.018 140.683 137.688 139.891 138.506ZM28.6089 140.973C29.0255 141.417 29.3887 141.78 29.4159 141.78C29.5437 141.78 29.4086 141.628 28.6586 140.923L27.8516 140.165L28.6089 140.973ZM137.086 141.143L136.242 142.036L137.134 141.192C137.625 140.727 138.026 140.325 138.026 140.299C138.026 140.172 137.869 140.313 137.086 141.143ZM50.702 140.666C50.702 140.713 50.9314 140.87 51.2117 141.015C51.492 141.16 51.7214 141.241 51.7214 141.194C51.7214 141.147 51.492 140.99 51.2117 140.845C50.9314 140.7 50.702 140.619 50.702 140.666ZM29.6354 141.834C29.6354 141.863 29.8839 142.112 30.1876 142.386L30.7397 142.886L30.2407 142.333C29.7756 141.818 29.6354 141.702 29.6354 141.834ZM110.844 142.801C110.517 142.98 110.326 143.127 110.419 143.127C110.512 143.127 110.856 142.98 111.183 142.801C111.511 142.622 111.702 142.475 111.608 142.475C111.515 142.475 111.171 142.622 110.844 142.801ZM34.2837 145.654C34.4179 145.871 35.4118 146.608 35.4118 146.49C35.4118 146.448 35.131 146.199 34.7883 145.937C34.4451 145.675 34.2178 145.547 34.2837 145.654ZM102.094 146.033C101.88 146.125 101.849 146.179 102.009 146.179C102.149 146.179 102.417 146.113 102.604 146.033C102.818 145.94 102.849 145.886 102.689 145.886C102.549 145.886 102.281 145.952 102.094 146.033ZM74.2766 148.364C74.4877 148.405 74.7935 148.403 74.9562 148.361C75.1184 148.318 74.9456 148.285 74.5718 148.287C74.198 148.288 74.0651 148.323 74.2766 148.364ZM75.5487 148.531C75.7122 148.574 75.9798 148.574 76.1433 148.531C76.3068 148.488 76.173 148.453 75.846 148.453C75.519 148.453 75.3852 148.488 75.5487 148.531ZM77.5895 148.706C77.8482 148.745 78.2304 148.744 78.439 148.704C78.6479 148.663 78.4368 148.631 77.9696 148.632C77.5024 148.634 77.3313 148.667 77.5895 148.706ZM88.0378 148.704C88.2489 148.745 88.5547 148.743 88.7174 148.701C88.8797 148.658 88.7068 148.625 88.333 148.627C87.9593 148.629 87.8263 148.663 88.0378 148.704ZM126.856 148.944C126.277 149.315 126.089 149.565 126.601 149.283C126.991 149.068 127.602 148.595 127.493 148.592C127.446 148.591 127.16 148.749 126.856 148.944ZM81.3339 148.881C82.2496 148.912 83.7022 148.911 84.5619 148.881C85.4211 148.85 84.6719 148.825 82.8965 148.825C81.1211 148.825 80.4178 148.85 81.3339 148.881ZM42.0375 150.871C42.0375 150.918 42.2669 151.075 42.5472 151.22C42.8275 151.365 43.0569 151.446 43.0569 151.399C43.0569 151.353 42.8275 151.195 42.5472 151.05C42.2669 150.905 42.0375 150.824 42.0375 150.871ZM120.867 152.496C120.54 152.675 120.334 152.825 120.409 152.829C120.589 152.838 121.547 152.34 121.547 152.237C121.547 152.125 121.537 152.129 120.867 152.496ZM46.1149 153.09C46.1149 153.205 47.4949 153.892 47.5718 153.815C47.6074 153.78 47.294 153.584 46.8756 153.381C46.4573 153.177 46.1149 153.046 46.1149 153.09ZM118.998 153.431C118.578 153.657 118.294 153.845 118.368 153.849C118.549 153.859 119.848 153.191 119.848 153.088C119.848 152.975 119.855 152.972 118.998 153.431ZM117.13 154.367C116.803 154.546 116.596 154.696 116.671 154.7C116.851 154.709 117.809 154.21 117.809 154.108C117.809 153.996 117.799 154 117.13 154.367ZM108.805 157.684C108.478 157.81 108.325 157.915 108.465 157.918C108.605 157.921 108.949 157.818 109.23 157.69C109.886 157.389 109.581 157.385 108.805 157.684ZM57.2428 157.86C57.5232 157.989 57.8672 158.091 58.0074 158.089C58.1475 158.086 57.9946 157.98 57.6676 157.854C56.892 157.555 56.5866 157.559 57.2428 157.86ZM74.7842 161.631C74.9944 161.671 75.3384 161.671 75.5487 161.631C75.7589 161.59 75.5869 161.557 75.1664 161.557C74.7459 161.557 74.5739 161.59 74.7842 161.631ZM90.4992 161.628C90.6627 161.671 90.9303 161.671 91.0938 161.628C91.2573 161.585 91.1235 161.55 90.7965 161.55C90.4694 161.55 90.3356 161.585 90.4992 161.628ZM76.7379 161.803C76.9949 161.841 77.4154 161.841 77.6723 161.803C77.9293 161.764 77.719 161.732 77.2051 161.732C76.6912 161.732 76.481 161.764 76.7379 161.803ZM88.3785 161.804C88.6839 161.842 89.1426 161.841 89.3978 161.802C89.6531 161.764 89.4034 161.733 88.8427 161.733C88.2821 161.734 88.0731 161.766 88.3785 161.804ZM80.6454 161.978C81.8368 162.007 83.7863 162.007 84.9777 161.978C86.169 161.949 85.1943 161.925 82.8116 161.925C80.4288 161.925 79.4541 161.949 80.6454 161.978Z" fill="#FCFCFC"/>
    <path fill-rule="evenodd" clip-rule="evenodd" d="M66.9943 60.0726C67.2984 60.1104 67.8381 60.1112 68.1936 60.0739C68.5491 60.0365 68.3002 60.0056 67.6406 60.0047C66.981 60.0039 66.6902 60.0344 66.9943 60.0726ZM73.937 60.0717C74.1961 60.1108 74.6201 60.1108 74.8793 60.0717C75.1384 60.0322 74.9264 60 74.4081 60C73.8898 60 73.6778 60.0322 73.937 60.0717ZM65.0278 72.6092C65.1927 72.6521 65.4626 72.6521 65.6275 72.6092C65.7924 72.5658 65.6575 72.5306 65.3277 72.5306C64.9979 72.5306 64.8629 72.5658 65.0278 72.6092ZM76.1642 72.6092C76.3291 72.6521 76.599 72.6521 76.7639 72.6092C76.9288 72.5658 76.7939 72.5306 76.4641 72.5306C76.1343 72.5306 75.9993 72.5658 76.1642 72.6092ZM15.0001 79.7926C15.0018 80.1705 15.0369 80.305 15.0781 80.0911C15.1192 79.8776 15.1175 79.5683 15.0746 79.4038C15.0318 79.2398 14.998 79.4146 15.0001 79.7926ZM151.892 83.5724C151.894 83.9504 151.929 84.0848 151.97 83.8709C152.011 83.6574 152.01 83.3482 151.967 83.1837C151.924 83.0196 151.89 83.1944 151.892 83.5724ZM63.9999 97.3499C64.1648 97.3928 64.4346 97.3928 64.5995 97.3499C64.7644 97.3065 64.6295 97.2713 64.2997 97.2713C63.9699 97.2713 63.835 97.3065 63.9999 97.3499ZM42.0667 105.135C42.0667 105.465 42.1018 105.601 42.1451 105.435C42.1879 105.27 42.1879 104.999 42.1451 104.834C42.1018 104.669 42.0667 104.804 42.0667 105.135ZM68.4467 110.416C69.0789 110.449 70.1583 110.449 70.8453 110.416C71.5328 110.384 71.0158 110.357 69.6966 110.357C68.3773 110.356 67.8149 110.383 68.4467 110.416ZM111.375 117.97C111.587 118.011 111.896 118.01 112.06 117.967C112.223 117.924 112.049 117.89 111.672 117.892C111.295 117.894 111.161 117.929 111.375 117.97Z" fill="#FCFCFC"/>
    <defs>
        <filter id="filter0_d" x="0" y="0" width="170" height="170" filterUnits="userSpaceOnUse" color-interpolation-filters="sRGB">
            <feFlood flood-opacity="0" result="BackgroundImageFix"/>
            <feColorMatrix in="SourceAlpha" type="matrix" values="0 0 0 0 0 0 0 0 0 0 0 0 0 0 0 0 0 0 127 0"/>
            <feOffset dy="4"/>
            <feGaussianBlur stdDeviation="2"/>
            <feColorMatrix type="matrix" values="0 0 0 0 0 0 0 0 0 0 0 0 0 0 0 0 0 0 0.25 0"/>
            <feBlend mode="normal" in2="BackgroundImageFix" result="effect1_dropShadow"/>
            <feBlend mode="normal" in="SourceGraphic" in2="effect1_dropShadow" result="shape"/>
        </filter>
    </defs>
</svg>
