<?xml version="1.0" encoding="UTF-8"?>
<svg width="271px" height="92px" viewBox="0 0 271 92" version="1.1" xmlns="http://www.w3.org/2000/svg">
    <!-- Generator: Sketch 46.2 (44496) - http://www.bohemiancoding.com/sketch -->
    <g id="Page-1" stroke="none" stroke-width="1" fill="none" fill-rule="evenodd" stroke-linecap="round">
        <g id="Group-54-Copy" transform="translate(10.000000, 10.000000)" stroke-width="19.5" stroke="#230CAE">
            <g id="Group-52">
                <path d="M177,70.98975 L213.236262,70.98975 C235.38954,70.98975 250.695819,55.67625 250.695819,35.6979375 C250.695819,15.5165625 235.38954,0 213.236262,0 L193.5,0" id="Stroke-1"></path>
                <path d="M0,3.9102656 L22.5864698,71.4985781 L47.6151745,4.5993281 L72.6433188,71.4985781 L91.5754027,17.4057656 C94.268698,9.5212031 99.9153154,2.9641406 107.860705,0.798515602 C113.173883,-0.652171898 118.72243,-0.0941718982 123.553661,2.2115156 C125.947141,3.3539531 128.164094,4.9250156 130.089638,6.8932031 L130.891574,7.7122031 L131.69351,6.8932031 C136.010852,2.4910781 141.863698,0.0177656018 147.966483,0.0177656018 C154.069268,0.0177656018 159.921554,2.4910781 164.238896,6.8926406 C168.569128,11.2981406 171.000154,17.2837031 170.997352,23.5257656 C170.990628,29.7644531 168.550074,35.7472031 164.21704,40.1465156 L163.415664,40.9655156 L142.700379,62.1357656 L135.760352,69.2215781 C133.059772,71.9637656 128.698158,71.9637656 125.998138,69.2215781 L123.864124,67.0272656 L119.051946,62.1132656 L107.411822,50.2214531" id="Stroke-3" stroke-linejoin="round"></path>
            </g>
        </g>
    </g>
</svg>
