<?xml version="1.0" encoding="UTF-8"?> <!-- Generator: Adobe Illustrator 23.0.1, SVG Export Plug-In . SVG Version: 6.00 Build 0) --> <svg xmlns="http://www.w3.org/2000/svg" xmlns:xlink="http://www.w3.org/1999/xlink" id="Calque_1" x="0px" y="0px" viewBox="0 0 350 47.73" style="enable-background:new 0 0 350 47.73;" xml:space="preserve"> <style type="text/css"> .st0{fill:#FFFFFF;} .st1{fill:#D5D1EA;} </style> <g> <g id="Page-1_7_"> <g id="Group-54-Copy_7_" transform="translate(10.000000, 10.000000)"> <g id="Group-52_7_"> <g id="Stroke-1_7_"> <g> <path class="st0" d="M84.71,32.76H69.53c-2.26,0-4.09-1.83-4.09-4.09s1.83-4.09,4.09-4.09h15.18c6.84,0,11.61-4.4,11.61-10.7 c0-6.4-4.77-10.87-11.61-10.87h-8.27c-2.26,0-4.09-1.83-4.09-4.09s1.83-4.09,4.09-4.09h8.27c11.28,0,19.78,8.19,19.78,19.04 C104.49,24.64,95.99,32.76,84.71,32.76z"></path> </g> </g> <g id="Stroke-3_7_"> <g> <path class="st0" d="M4.83,32.97c-0.02,0-0.05,0-0.07,0c-1.73-0.03-3.25-1.15-3.8-2.79L-8.51,1.86 C-9.23-0.28-8.07-2.6-5.93-3.31c2.14-0.72,4.45,0.44,5.17,2.58l5.81,17.38l6.44-17.22c0.6-1.6,2.12-2.65,3.83-2.65l0,0 c1.7,0,3.23,1.06,3.83,2.65l6.53,17.46l4.2-12.01c1.66-4.85,5.16-8.34,9.61-9.55c3.13-0.85,6.47-0.55,9.41,0.85 c0.46,0.22,0.9,0.46,1.32,0.72c2.14-1.32,4.62-2.04,7.15-2.04c3.63,0,7.18,1.5,9.74,4.11c2.58,2.63,4,6.12,4,9.83 c0,3.71-1.43,7.2-4.02,9.83L55.17,30.79c-1.33,1.35-3.09,2.09-4.96,2.09h0c-1.87,0-3.63-0.74-4.96-2.08l-2.92-2.99l-4.88-4.98 c-1.58-1.61-1.55-4.2,0.06-5.78c1.61-1.58,4.2-1.55,5.78,0.06l6.92,7.07l11.05-11.29c1.07-1.08,1.67-2.58,1.68-4.11 c0-1.53-0.6-3.03-1.66-4.1c-1.05-1.07-2.44-1.66-3.9-1.66c-1.47,0-2.85,0.59-3.9,1.66l-0.33,0.34 c-0.77,0.78-1.82,1.23-2.92,1.23s-2.15-0.44-2.92-1.23l-0.34-0.34c-0.46-0.47-0.99-0.85-1.58-1.13 c-1.17-0.56-2.5-0.68-3.74-0.34c-2.54,0.69-3.67,3.26-4.03,4.34l-7.94,22.69c-0.57,1.62-2.09,2.72-3.81,2.74 c-0.01,0-0.03,0-0.04,0c-1.7,0-3.23-1.06-3.83-2.65l-6.66-17.8l-6.66,17.8C8.05,31.91,6.53,32.97,4.83,32.97z"></path> </g> </g> </g> </g> </g> <g> <g> <path class="st0" d="M135.66,31.91l-3.45-9.95c-0.08-0.24-0.18-0.63-0.18-0.97c0-0.92,0.74-1.82,1.92-1.82 c1,0,1.66,0.63,1.95,1.55l2.16,7.16l2.21-7.14c0.29-0.95,1.03-1.61,2.05-1.61h0.24c1.03,0,1.76,0.66,2.05,1.61l2.24,7.16 l2.21-7.21c0.26-0.84,0.87-1.53,1.92-1.53c1.11,0,1.87,0.84,1.87,1.84c0,0.26-0.08,0.63-0.13,0.82l-3.55,10.08 c-0.42,1.24-1.24,1.79-2.21,1.79h-0.13c-0.97,0-1.79-0.55-2.16-1.71l-2.24-7.11l-2.26,7.11c-0.37,1.16-1.18,1.71-2.16,1.71h-0.13 C136.89,33.7,136.08,33.15,135.66,31.91z"></path> <path class="st0" d="M161.43,33.75c-4.24,0-7.37-2.98-7.37-7.29v-0.05c0-4.03,2.87-7.35,6.98-7.35c4.71,0,6.79,3.87,6.79,6.79 c0,1.16-0.82,1.92-1.87,1.92h-7.93c0.39,1.82,1.66,2.76,3.45,2.76c1.11,0,2.03-0.34,2.84-0.95c0.29-0.21,0.55-0.32,0.97-0.32 c0.9,0,1.55,0.68,1.55,1.58c0,0.53-0.24,0.92-0.53,1.18C165.09,33.09,163.49,33.75,161.43,33.75z M164.01,25.27 c-0.24-1.79-1.29-3-2.98-3c-1.66,0-2.74,1.18-3.05,3H164.01z"></path> <path class="st0" d="M170.75,16.06c0-1.11,0.9-2,2-2c1.11,0,2,0.9,2,2v15.53c0,1.11-0.9,2-2,2c-1.11,0-2-0.9-2-2V16.06z"></path> <path class="st0" d="M177.52,26.46v-0.05c0-4.05,3.26-7.35,7.66-7.35c4.37,0,7.61,3.24,7.61,7.29v0.05 c0,4.05-3.26,7.35-7.66,7.35C180.76,33.75,177.52,30.51,177.52,26.46z M188.84,26.46v-0.05c0-2.08-1.5-3.9-3.71-3.9 c-2.29,0-3.66,1.76-3.66,3.84v0.05c0,2.08,1.5,3.9,3.71,3.9C187.47,30.3,188.84,28.54,188.84,26.46z"></path> <path class="st0" d="M200.95,33.73h-0.21c-1.08,0-1.82-0.68-2.26-1.74l-4.32-9.98c-0.11-0.26-0.21-0.61-0.21-0.97 c0-0.95,0.87-1.87,1.95-1.87s1.66,0.61,1.95,1.42l3.03,8.19l3.08-8.24c0.26-0.68,0.82-1.37,1.87-1.37s1.92,0.82,1.92,1.9 c0,0.34-0.13,0.76-0.21,0.95l-4.32,9.98C202.77,33.01,202.03,33.73,200.95,33.73z"></path> <path class="st0" d="M216.28,33.75c-4.24,0-7.37-2.98-7.37-7.29v-0.05c0-4.03,2.87-7.35,6.98-7.35c4.71,0,6.79,3.87,6.79,6.79 c0,1.16-0.82,1.92-1.87,1.92h-7.93c0.39,1.82,1.66,2.76,3.45,2.76c1.11,0,2.03-0.34,2.84-0.95c0.29-0.21,0.55-0.32,0.97-0.32 c0.9,0,1.55,0.68,1.55,1.58c0,0.53-0.24,0.92-0.53,1.18C219.94,33.09,218.33,33.75,216.28,33.75z M218.86,25.27 c-0.24-1.79-1.29-3-2.98-3c-1.66,0-2.74,1.18-3.05,3H218.86z"></path> <path class="st0" d="M239.61,31.59c0,1.11-0.9,2-2,2c-1.11,0-2-0.9-2-2v-0.18c-0.97,1.32-2.32,2.29-4.4,2.29 c-3.29,0-6.42-2.58-6.42-7.29v-0.05c0-4.71,3.08-7.29,6.42-7.29c2.13,0,3.45,0.97,4.4,2.11v-5.11c0-1.11,0.9-2,2-2 c1.11,0,2,0.9,2,2V31.59z M228.78,26.35v0.05c0,2.34,1.58,3.9,3.45,3.9c1.87,0,3.42-1.55,3.42-3.9v-0.05 c0-2.34-1.55-3.9-3.42-3.9C230.36,22.46,228.78,23.98,228.78,26.35z"></path> <path class="st0" d="M249.56,33.75c-4.24,0-7.37-2.98-7.37-7.29v-0.05c0-4.03,2.87-7.35,6.98-7.35c4.71,0,6.79,3.87,6.79,6.79 c0,1.16-0.82,1.92-1.87,1.92h-7.93c0.39,1.82,1.66,2.76,3.45,2.76c1.11,0,2.03-0.34,2.84-0.95c0.29-0.21,0.55-0.32,0.97-0.32 c0.9,0,1.55,0.68,1.55,1.58c0,0.53-0.24,0.92-0.53,1.18C253.22,33.09,251.61,33.75,249.56,33.75z M252.14,25.27 c-0.24-1.79-1.29-3-2.98-3c-1.66,0-2.74,1.18-3.05,3H252.14z"></path> <path class="st0" d="M264.22,33.73h-0.21c-1.08,0-1.82-0.68-2.26-1.74l-4.32-9.98c-0.11-0.26-0.21-0.61-0.21-0.97 c0-0.95,0.87-1.87,1.95-1.87c1.08,0,1.66,0.61,1.95,1.42l3.03,8.19l3.08-8.24c0.26-0.68,0.82-1.37,1.87-1.37 c1.05,0,1.92,0.82,1.92,1.9c0,0.34-0.13,0.76-0.21,0.95l-4.32,9.98C266.04,33.01,265.3,33.73,264.22,33.73z"></path> <path class="st0" d="M272.7,32.09c-0.42-0.26-0.76-0.74-0.76-1.37c0-0.9,0.68-1.58,1.58-1.58c0.29,0,0.58,0.08,0.79,0.21 c1.34,0.84,2.69,1.26,3.82,1.26c1.16,0,1.69-0.42,1.69-1.05v-0.05c0-0.87-1.37-1.16-2.92-1.63c-1.97-0.58-4.21-1.5-4.21-4.24 v-0.05c0-2.87,2.32-4.48,5.16-4.48c1.47,0,3,0.4,4.37,1.08c0.58,0.29,0.95,0.82,0.95,1.5c0,0.9-0.71,1.58-1.61,1.58 c-0.29,0-0.47-0.05-0.74-0.18c-1.13-0.55-2.21-0.9-3.05-0.9c-0.97,0-1.47,0.42-1.47,0.97v0.05c0,0.79,1.34,1.16,2.87,1.69 c1.97,0.66,4.27,1.61,4.27,4.19v0.05c0,3.13-2.34,4.55-5.4,4.55C276.28,33.7,274.41,33.2,272.7,32.09z"></path> </g> <g> <path class="st1" d="M291.18,29.06c1.32,0,2.29,0.97,2.29,2.24v0.05c0,1.26-0.97,2.24-2.29,2.24c-1.32,0-2.29-0.97-2.29-2.24 V31.3C288.89,30.04,289.86,29.06,291.18,29.06z"></path> <path class="st1" d="M295.21,26.46v-0.05c0-4.03,3.08-7.35,7.4-7.35c2.13,0,3.63,0.58,4.82,1.58c0.26,0.21,0.63,0.68,0.63,1.37 c0,1-0.82,1.79-1.82,1.79c-0.53,0-0.92-0.21-1.16-0.39c-0.71-0.55-1.45-0.9-2.5-0.9c-2,0-3.42,1.76-3.42,3.84v0.05 c0,2.16,1.4,3.9,3.58,3.9c1.05,0,1.87-0.37,2.63-0.97c0.21-0.16,0.61-0.37,1.08-0.37c0.95,0,1.69,0.76,1.69,1.71 c0,0.53-0.24,0.95-0.58,1.26c-1.18,1.08-2.69,1.82-5,1.82C298.31,33.75,295.21,30.49,295.21,26.46z"></path> <path class="st1" d="M309.53,26.46v-0.05c0-4.05,3.26-7.35,7.66-7.35c4.37,0,7.61,3.24,7.61,7.29v0.05 c0,4.05-3.26,7.35-7.66,7.35C312.77,33.75,309.53,30.51,309.53,26.46z M320.85,26.46v-0.05c0-2.08-1.5-3.9-3.71-3.9 c-2.29,0-3.66,1.76-3.66,3.84v0.05c0,2.08,1.5,3.9,3.71,3.9C319.48,30.3,320.85,28.54,320.85,26.46z"></path> <path class="st1" d="M327.38,21.17c0-1.11,0.9-2,2-2c1.11,0,2,0.9,2,2v0.16c0.92-1.18,2.13-2.26,4.16-2.26 c1.84,0,3.24,0.82,3.98,2.24c1.24-1.45,2.71-2.24,4.63-2.24c2.98,0,4.77,1.79,4.77,5.19v7.35c0,1.11-0.9,2-2,2c-1.11,0-2-0.9-2-2 v-6.03c0-1.9-0.84-2.87-2.34-2.87s-2.42,0.97-2.42,2.87v6.03c0,1.11-0.9,2-2,2c-1.11,0-2-0.9-2-2v-6.03 c0-1.9-0.84-2.87-2.34-2.87c-1.5,0-2.42,0.97-2.42,2.87v6.03c0,1.11-0.9,2-2,2c-1.11,0-2-0.9-2-2V21.17z"></path> </g> </g> </g> </svg> 