<?xml version="1.0" encoding="UTF-8"?> <svg xmlns="http://www.w3.org/2000/svg" id="Calque_1" data-name="Calque 1" viewBox="0 0 200 200"><defs><style>.cls-1{fill:#fff;fill-rule:evenodd;}</style></defs><path class="cls-1" d="M89.67,111.06V82.76l27,14.2ZM149,77.86s-1-6.94-4-10c-3.8-4-8.07-4-10-4.26-14-1-35-1-35-1h0s-21,0-35,1c-2,.23-6.22.25-10,4.26-3,3.06-4,10-4,10a153.39,153.39,0,0,0-1,16.3v7.64a153.14,153.14,0,0,0,1,16.3s1,6.94,4,10c3.8,4,8.8,3.89,11,4.31,8,.77,34,1,34,1s21,0,35-1c2-.24,6.22-.26,10-4.27,3-3.06,4-10,4-10a153.14,153.14,0,0,0,1-16.3V94.16a153.39,153.39,0,0,0-1-16.3Z"></path></svg> 