<?xml version="1.0" encoding="UTF-8"?> <svg xmlns="http://www.w3.org/2000/svg" id="Calque_1" data-name="Calque 1" viewBox="0 0 200 200"><defs><style>.cls-1{fill:#fff;fill-rule:evenodd;}</style></defs><path class="cls-1" d="M144.26,72.53v.09a.47.47,0,0,0-.22.22,36.43,36.43,0,0,1-8.49,8.81.81.81,0,0,0-.34.74,50.47,50.47,0,0,1-.43,8.69,54.76,54.76,0,0,1-4.93,16.15,51.65,51.65,0,0,1-13.3,17.17A47.78,47.78,0,0,1,98.38,134,54.33,54.33,0,0,1,81.27,136a52.14,52.14,0,0,1-7.29-.83,50.79,50.79,0,0,1-16.21-6c-.68-.38-1.35-.81-2-1.21a.9.9,0,0,1,0-.09,36.55,36.55,0,0,0,26.7-7.5c-.61,0-1.13-.07-1.65-.14a11.75,11.75,0,0,1-1.53-.22,18.12,18.12,0,0,1-13.62-11.86c-.16-.43-.11-.45.29-.39a18,18,0,0,0,7.3-.25c.09,0,.2,0,.24-.15l-.26-.07a17.81,17.81,0,0,1-9.77-6,17.51,17.51,0,0,1-4.28-11.21c0-.72,0-.72.6-.41a19.54,19.54,0,0,0,6.33,1.85c.36,0,.7,0,1.06.07,0-.14-.07-.16-.14-.21a22.19,22.19,0,0,1-2.79-2.43,17.37,17.37,0,0,1-2.77-3.8,18.16,18.16,0,0,1-2.16-9.55,18.62,18.62,0,0,1,2.25-8c.16-.29.25-.29.45,0a49.52,49.52,0,0,0,7.07,7,51.21,51.21,0,0,0,18.17,9.64,50.46,50.46,0,0,0,11.42,2c.56,0,.54,0,.45-.49a18.18,18.18,0,0,1,14.52-21.5c.62-.12,1.23-.18,1.87-.3h2.72a1.77,1.77,0,0,0,.72.09,18,18,0,0,1,11,5.34.78.78,0,0,0,.77.23,36.36,36.36,0,0,0,10.65-4.08.56.56,0,0,1,.43-.13A18.44,18.44,0,0,1,134,75.3a33,33,0,0,0,7.38-1.69C142.37,73.27,143.32,72.89,144.26,72.53Z"></path></svg> 