<?xml version="1.0" encoding="UTF-8"?> <svg xmlns="http://www.w3.org/2000/svg" id="Calque_1" data-name="Calque 1" viewBox="0 0 200 200"><defs><style>.cls-1{fill:#fff;fill-rule:evenodd;}</style></defs><path class="cls-1" d="M120.79,84.77c-.4,4.24-.82,8.48-1.14,12.71-.08,1.07-.56,1.24-1.46,1.23-3.32,0-6.63,0-9.94,0-1.08,0-1.37.36-1.36,1.39,0,7.1,0,14.21,0,21.31s0,14.21,0,21.31c0,1.42,0,1.47-1.48,1.47H90c-1.47,0-1.5,0-1.5-1.57V100.74c0-1.82,0-1.82-1.77-1.82-2.15,0-4.29,0-6.45,0-.9,0-1.21-.31-1.2-1.2,0-4.42,0-8.82,0-13.23,0-.92.37-1.19,1.24-1.18,2.34,0,4.66,0,7,0,.9,0,1.21-.3,1.2-1.2,0-3.76-.06-7.51,0-11.26.07-4.24.87-8.27,3.77-11.59a15.76,15.76,0,0,1,9-4.79,31.66,31.66,0,0,1,6.94-.67c3.78,0,7.58,0,11.36,0,1,0,1.34.34,1.32,1.34q-.06,6.66,0,13.33c0,1.07-.38,1.38-1.4,1.36-2.85-.05-5.69,0-8.53,0s-4,1.1-4.08,4c0,2.73,0,5.46,0,8.2,0,.93.27,1.28,1.24,1.27,3.79,0,7.58,0,11.37,0C120.87,83.34,120.92,83.46,120.79,84.77Z"></path></svg> 