<?xml version="1.0" encoding="UTF-8"?> <svg xmlns="http://www.w3.org/2000/svg" id="Calque_1" data-name="Calque 1" viewBox="0 0 200 200"><defs><style>.cls-1{fill:#fff;fill-rule:evenodd;}</style></defs><path class="cls-1" d="M100,54.25a45.91,45.91,0,0,0-14.44,89.42c2.28.42,3.12-1,3.12-2.21s0-4-.07-7.81c-12.71,2.78-15.39-6.15-15.39-6.15-2.08-5.3-5.08-6.71-5.08-6.71C64,118,68.46,118,68.46,118c4.58.33,7,4.73,7,4.73,4.08,7,10.69,5,13.3,3.81a9.78,9.78,0,0,1,2.9-6.13c-10.15-1.16-20.82-5.09-20.82-22.67a17.77,17.77,0,0,1,4.71-12.32c-.47-1.16-2-5.82.44-12.14,0,0,3.84-1.23,12.57,4.7a43.26,43.26,0,0,1,22.88,0c8.73-5.93,12.56-4.7,12.56-4.7,2.49,6.32.92,11,.45,12.14a17.76,17.76,0,0,1,4.7,12.32c0,17.62-10.68,21.5-20.86,22.63,1.64,1.42,3.1,4.22,3.1,8.5,0,6.13-.06,11.08-.06,12.59,0,1.22.82,2.65,3.14,2.2A45.91,45.91,0,0,0,100,54.25"></path></svg> 