<?xml version="1.0" encoding="UTF-8"?> <svg xmlns="http://www.w3.org/2000/svg" id="Calque_1" data-name="Calque 1" viewBox="0 0 200 200"><defs><style>.cls-1,.cls-2{fill:#fff;}.cls-2{fill-rule:evenodd;}</style></defs><path class="cls-1" d="M142.91,77c-.38-11.88-9.25-18.94-17-21a28.89,28.89,0,0,0-7.54-1.26H81.87a30.27,30.27,0,0,0-7.8,1.42C64.4,58.89,56.76,67.68,56.76,79.89v36.5c0,17,12.55,24.35,22.41,24.57,14,.32,28,.4,42,0a22.44,22.44,0,0,0,21.77-21.75C143.34,105.14,143.36,91.05,142.91,77Zm-8.1,42.44c-1.07,8.65-6.84,13.62-15.63,13.77q-19.05.33-38.11,0c-9.57-.18-15.88-6.51-16-16.07q-.33-19,0-38.11c.18-9.54,6.55-15.83,16.11-16q18.94-.32,37.89,0c9.66.15,15.81,6.5,16.22,16.17C135.39,82.38,135.68,112.38,134.81,119.44Z"></path><path class="cls-2" d="M100.12,75.79a22.32,22.32,0,1,0,22.3,22.35A22.37,22.37,0,0,0,100.12,75.79ZM100,112.47a14.34,14.34,0,1,1,14.43-14.16A14.24,14.24,0,0,1,100,112.47Z"></path><path class="cls-2" d="M128.5,74.94a5.36,5.36,0,0,1-5.15,5.35,5.45,5.45,0,0,1-5.4-5.35,5.33,5.33,0,0,1,5.29-5.2A5.24,5.24,0,0,1,128.5,74.94Z"></path></svg> 