<?xml version="1.0" encoding="UTF-8"?>
<svg color="#fff" width="470px" height="470px" viewBox="0 0 470 470" version="1.1" xmlns="http://www.w3.org/2000/svg">
    <!-- Generator: Sketch 53 (72520) - https://sketchapp.com -->
    <title>Group</title>
    <desc>Created with Sketch.</desc>
    <g id="Page-1" stroke="none" stroke-width="1" fill="none" fill-rule="evenodd">
        <g id="Desktop-HD" transform="translate(-272.000000, -307.000000)">
            <g id="Group" transform="translate(272.000000, 307.000000)">
                <rect class="to-fill" id="Rectangle" fill="#220BAB" x="0" y="0" width="470" height="470" rx="20"></rect>
                <g class="to-color" id="Group-2" transform="translate(135.000000, 82.000000)" fill="currentColor">
                    <path d="M157.570552,55.3660086 C182.944411,63.1354038 199.494274,75.664551 199.494274,88.8855807 C199.494274,102.066711 183.026022,114.595859 157.81448,122.365254 C163.710442,148.157143 161.148754,168.700519 149.722266,175.290178 C147.038162,176.836259 143.947814,177.568947 140.532835,177.568947 C129.350274,177.568947 114.711021,169.676228 99.9094529,155.926538 C85.1087913,169.757839 70.4695388,177.731262 59.2869779,177.731262 C55.8710919,177.731262 52.7807442,176.998574 50.1374451,175.453401 C38.6710583,168.862835 36.0685648,148.278653 41.9237217,122.406059 C16.5498636,114.636664 -1.42108547e-14,102.10661 -1.42108547e-14,88.8855807 C-1.42108547e-14,75.7053567 16.4682523,63.2170151 41.7614059,55.4059075 C35.8654433,29.614925 38.4271312,9.07154872 49.8536191,2.48189013 C52.5368171,0.935809504 55.6271648,0.203121443 59.0430508,0.203121443 L59.0430508,0.162315796 C70.2256117,0.162315796 84.8639575,8.05503472 99.6655258,21.8047242 C114.467094,7.97342342 129.106347,-4.26325641e-14 140.288908,-4.26325641e-14 L140.288908,0.040805647 C143.647666,0.0462463999 146.723505,0.778934462 149.356829,2.31866754 C160.823216,8.90923293 163.425709,29.4934149 157.570552,55.3660086 Z M140.248102,9.07154872 C131.790452,9.09331174 119.366492,15.8443793 106.130954,28.1504557 C111.864601,34.1307499 117.557442,40.9652424 123.047162,48.4907105 C132.196694,49.4673257 140.898272,50.9716939 148.868068,52.9249242 C149.763072,48.8162489 150.494853,44.7891849 150.941902,40.9652424 C152.812614,25.4246385 150.413242,13.3434466 144.883623,10.169674 C143.623182,9.4786984 142.117907,9.11235437 140.248102,9.11235437 L140.248102,9.07154872 Z M93.2000977,28.1912613 C79.9437032,15.9468468 67.4608024,9.23477131 59.0430508,9.23477131 L59.0430508,9.27467017 C57.1723386,9.27467017 55.5863591,9.60020855 54.3667237,10.3328966 C48.877004,13.546568 46.5184376,25.6286667 48.4299554,41.1683639 C48.9178096,44.9515007 49.609692,48.8978602 50.5445947,52.9657298 C58.514391,50.9716939 67.2168753,49.4673257 76.406307,48.4907105 C81.8144154,40.9652424 87.5072566,34.1715556 93.2000977,28.1912613 Z M88.8656312,128.764486 C92.6369798,133.406355 96.449134,137.651049 100.262195,141.459576 C104.033544,137.651049 107.845698,133.406355 111.535435,128.764486 C107.804892,128.963074 103.992738,129.041964 100.138871,129.041964 C96.3267171,129.041964 92.5553685,128.923175 88.8656312,128.764486 Z M53.6911635,167.573377 C48.2830551,164.424088 45.9371838,152.431761 47.7661836,137.008134 C48.2041642,133.212302 48.9196232,129.215162 49.7946776,125.137317 C57.5876494,127.075132 66.0978938,128.569526 75.0443052,129.53798 C80.4125148,137.008134 85.9793118,143.790939 91.5860077,149.7268 C78.6234138,161.96124 66.4551699,168.663341 58.1843187,168.663341 C56.3952177,168.622535 54.884502,168.259818 53.6911635,167.573377 Z M144.079299,166.703763 C149.449322,163.505507 151.756201,151.47963 149.886396,136.012476 C149.449322,132.247475 148.732956,128.320158 147.81891,124.230525 C140.022311,126.214587 131.51116,127.712607 122.522129,128.684688 C117.231903,136.174792 111.663293,142.936741 106.094682,148.888924 C119.060903,161.076211 131.271766,167.756549 139.505439,167.756549 C141.335346,167.756549 142.886867,167.432824 144.079299,166.703763 Z M145.993537,62.1152627 C144.520907,67.2975798 142.689186,72.641306 140.61898,77.9841254 C138.986754,74.770454 137.27473,71.5558758 135.404018,68.3422044 C133.572298,65.128533 131.621788,61.9946593 129.671278,58.9414901 C135.324221,59.7848068 140.778575,60.8294314 145.993537,62.1152627 Z M118.644686,121.599921 C122.031554,116.737702 125.296006,111.508231 128.478847,105.992215 C131.53927,100.640327 134.35486,95.1651163 136.925615,89.6908121 C134.35486,84.2156011 131.53927,78.7821025 128.438041,73.4293084 C125.2552,67.9550041 121.949943,62.7663394 118.563074,57.9041199 C112.523839,57.4135453 106.362186,57.1279058 100.200533,57.1279058 C93.9980748,57.1279058 87.8364221,57.4135453 81.7563807,57.9449255 C78.369512,62.8071451 75.1050603,68.0366154 71.9222198,73.5526321 C68.8617963,78.9045194 66.005401,84.3797304 63.4754509,89.8540347 C66.0462066,95.3292457 68.8617963,100.762744 71.9630255,106.115538 C75.1458659,111.589843 78.4511233,116.778507 81.837992,121.640727 C87.8772278,122.131301 94.0388805,122.416941 100.200533,122.416941 C106.402992,122.416941 112.564644,122.131301 118.644686,121.599921 Z M69.822996,118.789772 C64.1700537,117.946456 58.7156989,116.901831 53.5007372,115.616 C54.9733676,110.433683 56.8050878,105.089956 58.8752943,99.7471371 C60.5075202,102.960809 62.2195437,106.175387 64.090256,109.389058 C65.9609682,112.602729 67.872486,115.736603 69.822996,118.789772 Z M145.993537,115.602398 C144.488262,110.423708 142.66561,105.085423 140.526487,99.7471371 C138.902422,102.934512 137.19856,106.160878 135.375908,109.348252 C133.554162,112.574619 131.61272,115.722095 129.671278,118.789772 C135.336916,117.952803 140.803966,116.877348 145.993537,115.602398 Z M69.822996,58.9414901 C67.881554,62.0155155 65.940112,65.1693386 64.1183665,68.4029595 C62.2957143,71.5966814 60.5918518,74.7904034 58.9677871,77.9841254 C56.8286644,72.6349584 55.0060122,67.2848847 53.5007372,62.0953132 C58.6903087,60.8575419 64.1573586,59.7802729 69.822996,58.9414901 Z M9.06792155,89.2981711 C9.06792155,95.7427429 18.2546329,103.870321 32.4559048,110.069152 C35.9461478,111.588029 39.7165896,112.983582 43.6883393,114.255812 C45.9344634,106.251557 48.9033009,97.9190441 52.593945,89.3806892 C48.8634021,80.8015286 45.8546657,72.427303 43.5677359,64.382243 C39.6766908,65.6544724 35.9053422,67.0092199 32.4559048,68.5280968 C18.2546329,74.6852155 9.06792155,82.8535992 9.06792155,89.2981711 Z M166.113441,110.109958 C162.666724,111.628835 158.899003,112.983582 155.011585,114.255812 C152.726469,106.210752 149.72136,97.836526 145.993537,89.2573654 C149.680554,80.7190105 152.646671,72.3864974 154.890982,64.382243 C158.859104,65.6544724 162.626826,67.0500256 166.15334,68.5689024 C180.34101,74.7677336 189.51956,82.8953117 189.51956,89.3398835 C189.479662,95.7844554 180.301111,103.952839 166.113441,110.109958 Z M111.535435,47.1531921 C107.764087,42.511323 103.951932,38.266629 100.138871,34.4581019 C96.3675227,38.266629 92.5553685,42.511323 88.8656312,47.1531921 C92.5961742,46.9546046 96.4083284,46.8757137 100.262195,46.8757137 C104.074349,46.8757137 107.845698,46.9945035 111.535435,47.1531921 Z" id="Shape"></path>
                    <path d="M100.653929,106.094682 C110.670355,106.094682 118.789772,97.9752652 118.789772,87.9588391 C118.789772,77.9424129 110.670355,69.822996 100.653929,69.822996 C90.6375031,69.822996 82.5180861,77.9424129 82.5180861,87.9588391 C82.5180861,97.9752652 90.6375031,106.094682 100.653929,106.094682 Z" id="Path" fill-rule="nonzero"></path>
                </g>
                <text class="to-color" id="I-mainly-write-React" font-family="AvenirNext-Bold, Avenir Next" font-size="36" font-weight="bold" line-spacing="46" fill="currentColor">
                    <tspan x="116" y="336">I mainly write</tspan>
                    <tspan x="116" y="382">React stuff</tspan>
                </text>
            </g>
        </g>
    </g>
</svg>
