<?xml version="1.0"?>
<svg xmlns="http://www.w3.org/2000/svg" width="512" height="512" viewBox="0 0 520 520" style="enable-background:new 0 0 512 512" xml:space="preserve">
    <g>
        <g xmlns="http://www.w3.org/2000/svg">
            <path d="m310 290c-35.841 0-65 29.159-65 65 0 18.387 7.687 35.002 20 46.837 1.46 1.404 2.985 2.74 4.571 4.003.003.002.006.004.009.007.787.627 1.587 1.236 2.403 1.826.016.011.032.022.047.034.802.58 1.617 1.142 2.446 1.686.036.024.074.047.11.071.809.528 1.629 1.04 2.463 1.532.065.038.131.075.196.113.809.474 1.626.933 2.457 1.373.098.052.199.101.297.152.801.419 1.609.825 2.429 1.211.142.066.286.128.428.194.784.362 1.574.714 2.375 1.046.189.078.381.149.571.226.762.307 1.527.607 2.303.886.241.086.487.164.729.248.734.253 1.469.503 2.215.731.299.091.604.17.905.257.699.202 1.397.405 2.105.584.365.093.737.169 1.105.256.654.153 1.307.311 1.968.444.439.089.885.158 1.328.238.602.108 1.201.224 1.808.316.526.08 1.059.136 1.59.203.534.067 1.064.145 1.601.199.654.066 1.316.105 1.975.151.424.03.845.073 1.271.095 1.091.055 2.189.083 3.293.083s2.202-.029 3.293-.083c.427-.021.847-.065 1.271-.095.659-.046 1.321-.085 1.975-.151.537-.054 1.067-.132 1.601-.199.53-.067 1.063-.123 1.59-.203.607-.092 1.206-.208 1.808-.316.443-.08.889-.149 1.328-.238.661-.133 1.314-.291 1.968-.444.368-.086.74-.163 1.105-.256.708-.179 1.407-.382 2.105-.584.301-.087.606-.166.905-.257.746-.228 1.481-.478 2.215-.731.242-.084.488-.161.729-.248.776-.279 1.541-.579 2.303-.886.19-.077.382-.147.571-.226.801-.332 1.59-.684 2.375-1.046.142-.066.286-.127.428-.194.82-.386 1.628-.792 2.429-1.211.099-.052.199-.101.297-.152.831-.44 1.648-.899 2.457-1.373.065-.038.131-.075.196-.113.833-.493 1.653-1.004 2.463-1.532.037-.024.074-.047.11-.071.829-.543 1.644-1.106 2.446-1.686.016-.011.031-.022.047-.034.816-.59 1.616-1.199 2.403-1.826.003-.002.006-.004.009-.007 1.586-1.264 3.11-2.6 4.571-4.003 12.313-11.835 20-28.45 20-46.837.004-35.841-29.155-65-64.996-65z" fill="#220bab"/>
            <path d="m420 0h-320c-8.284 0-15 6.716-15 15v425c0 8.284 6.716 15 15 15h135v-41.606c-12.979-16.55-20-36.845-20-58.394 0-52.383 42.617-95 95-95s95 42.617 95 95c0 21.549-7.021 41.844-20 58.394v41.606h35c8.284 0 15-6.716 15-15v-425c0-8.284-6.716-15-15-15zm-260 65h60c8.284 0 15 6.716 15 15s-6.716 15-15 15h-60c-8.284 0-15-6.716-15-15s6.716-15 15-15zm200 180h-60c-8.284 0-15-6.716-15-15s6.716-15 15-15h60c8.284 0 15 6.716 15 15s-6.716 15-15 15zm0-50h-200c-8.284 0-15-6.716-15-15s6.716-15 15-15h200c8.284 0 15 6.716 15 15s-6.716 15-15 15zm0-50h-200c-8.284 0-15-6.716-15-15s6.716-15 15-15h200c8.284 0 15 6.716 15 15s-6.716 15-15 15z" fill="#220bab"/>
            <path d="m265 438.647v66.353c0 5.532 3.045 10.615 7.922 13.226 4.877 2.609 10.796 2.325 15.398-.745l21.68-14.454 21.68 14.453c2.51 1.674 5.411 2.52 8.321 2.52 2.427 0 4.859-.588 7.077-1.774 4.877-2.61 7.922-7.693 7.922-13.226v-66.353c-13.402 7.239-28.729 11.353-45 11.353s-31.598-4.114-45-11.353z" fill="#220bab"/>
        </g>
    </g>
</svg>
