<?xml version="1.0" encoding="UTF-8"?>
<svg version="1.1" viewBox="0 0 40 40" xmlns="http://www.w3.org/2000/svg">
    <g transform="scale(1.6667)">
        <path d="m12 0c-6.627 0-12 5.373-12 12s5.373 12 12 12 12-5.373 12-12c-7e-3 -6.624-5.376-11.993-12-12zm-5.964 17.078 1.116-2.792c0.026-0.063 0.063-0.12 0.111-0.168l5.892-5.892c0.198-0.188 0.509-0.188 0.707 0l1.676 1.674c0.093 0.094 0.146 0.221 0.146 0.354 0 0.132-0.053 0.259-0.146 0.353l-5.893 5.893c-0.048 0.048-0.105 0.086-0.168 0.111l-2.791 1.117c-0.186 0.07-0.397 0.027-0.54-0.111-0.141-0.142-0.184-0.353-0.11-0.539zm11.734-8.7-0.838 0.837c-0.195 0.195-0.512 0.195-0.707 0l-1.675-1.677c-0.195-0.195-0.195-0.512 0-0.707l0.838-0.838c0.315-0.316 0.744-0.494 1.191-0.493v0c0.931 1e-3 1.684 0.756 1.683 1.687-1e-3 0.446-0.178 0.874-0.493 1.189l1e-3 2e-3z" stroke-linecap="round" stroke-linejoin="round" stroke-width="0"/>
    </g>
</svg>
