<svg width="22" height="17" viewBox="0 0 22 17" fill="none" xmlns="http://www.w3.org/2000/svg">
    <path fill-rule="evenodd" clip-rule="evenodd" d="M18.5096 0.467042C18.3129 0.47004 18.1252 0.547908 17.9871 0.683973C17.8491 0.820037 17.7717 1.00332 17.7717 1.19425V2.64884H16.2725C16.0737 2.64887 15.8831 2.72554 15.7425 2.86191L11.0253 7.43867L6.30804 2.86191C6.16748 2.72554 5.97685 2.64887 5.77807 2.64884H1.28046C1.18115 2.64752 1.08257 2.6654 0.990432 2.70136C0.898294 2.73731 0.814438 2.79064 0.743734 2.85831C0.673031 2.92597 0.616889 3.00664 0.57857 3.09554C0.540251 3.18443 0.520518 3.27978 0.520518 3.37614C0.520518 3.47249 0.540251 3.56793 0.57857 3.65682C0.616889 3.74571 0.673031 3.8263 0.743734 3.89397C0.814438 3.96163 0.898294 4.01496 0.990432 4.05092C1.08257 4.08688 1.18115 4.10475 1.28046 4.10343H5.46766L9.96528 8.46712L5.46766 12.8308H1.28046C1.18107 12.8294 1.08238 12.8472 0.990132 12.8831C0.89788 12.919 0.813907 12.9722 0.743099 13.0399C0.67229 13.1076 0.616059 13.1883 0.577678 13.2772C0.539297 13.3662 0.519531 13.4617 0.519531 13.5581C0.519531 13.6545 0.539297 13.75 0.577678 13.8389C0.616059 13.9279 0.67229 14.0086 0.743099 14.0763C0.813907 14.1439 0.89788 14.1973 0.990132 14.2332C1.08238 14.2691 1.18107 14.2868 1.28046 14.2854H5.77807C5.97685 14.2854 6.16748 14.2087 6.30804 14.0723L11.0253 9.49556L15.7425 14.0723C15.8831 14.2087 16.0737 14.2854 16.2725 14.2854H17.7717V15.74C17.7718 15.8838 17.8158 16.0243 17.8981 16.1439C17.9805 16.2634 18.0976 16.3566 18.2345 16.4117C18.3714 16.4667 18.5221 16.4811 18.6675 16.4531C18.8129 16.4251 18.9464 16.3558 19.0513 16.2542L21.3001 14.0723C21.4406 13.9359 21.5196 13.7509 21.5196 13.5581C21.5196 13.3652 21.4406 13.1803 21.3001 13.0439L19.0513 10.8621C18.9803 10.7932 18.8958 10.7388 18.8027 10.7022C18.7097 10.6656 18.61 10.6475 18.5096 10.649C18.3129 10.652 18.1252 10.7299 17.9871 10.866C17.8491 11.0021 17.7717 11.1854 17.7717 11.3763V12.8309H16.5829L12.0853 8.4672L16.5829 4.10343H17.7717V5.55802C17.7718 5.70183 17.8158 5.84238 17.8981 5.96193C17.9805 6.08149 18.0976 6.17467 18.2345 6.2297C18.3714 6.28473 18.5221 6.29917 18.6675 6.27114C18.8129 6.24311 18.9464 6.17389 19.0513 6.07224L21.3001 3.89036C21.4406 3.75396 21.5195 3.56899 21.5195 3.37614C21.5195 3.18329 21.4406 2.99839 21.3001 2.862L19.0513 0.680114C18.9803 0.611223 18.8958 0.556905 18.8027 0.52031C18.7097 0.483716 18.61 0.465635 18.5096 0.467126V0.467042Z" fill="#8D8D8D"/>
</svg>
