<?xml version="1.0" encoding="UTF-8"?>
<svg version="1.1" viewBox="0 0 40 40" xmlns="http://www.w3.org/2000/svg">
    <g transform="scale(1.6667)">
        <path d="m11.983 0c-3.206 0.052-6.263 1.365-8.51 3.653-2.271 2.261-3.525 5.349-3.473 8.554-8e-3 6.505 5.26 11.785 11.765 11.793h0.035 0.214c6.678-0.069 12.04-5.531 11.986-12.209v0c0.015-6.498-5.24-11.778-11.738-11.794-0.093 0-0.186 1e-3 -0.279 3e-3zm-1.483 16.542c-0.03-0.815 0.606-1.499 1.421-1.529 9e-3 0 0.019-1e-3 0.028-1e-3h0.027c0.82 2e-3 1.492 0.651 1.523 1.47 0.03 0.814-0.605 1.499-1.419 1.529-0.01 0-0.02 1e-3 -0.03 1e-3h-0.027c-0.82-3e-3 -1.491-0.651-1.523-1.47zm0.5-4.042v-6c0-0.552 0.448-1 1-1s1 0.448 1 1v6c0 0.552-0.448 1-1 1s-1-0.448-1-1z" stroke-linecap="round" stroke-linejoin="round" stroke-width="0"/>
    </g>
</svg>
