<?xml version="1.0" encoding="UTF-8"?>
<svg version="1.1" viewBox="0 0 40 40" xmlns="http://www.w3.org/2000/svg">
    <g transform="scale(1.6667)" fill="none" stroke="#000" stroke-linecap="round" stroke-linejoin="round" stroke-width="1.5">
        <path d="M 12,5.251C7.969,5.183,3.8,8,1.179,10.885c-0.57,0.633-0.57,1.593,0,2.226C3.743,15.935,7.9,18.817,12,18.748 c4.1,0.069,8.258-2.813,10.824-5.637c0.57-0.633,0.57-1.593,0-2.226C20.2,8,16.031,5.183,12,5.251z "/>
        <path d="m15.75 12c-1e-3 2.071-1.68 3.75-3.751 3.749s-3.75-1.68-3.749-3.751 1.679-3.749 3.75-3.749c2.071-1e-3 3.749 1.677 3.75 3.748v3e-3z"/>
    </g>
</svg>
