<svg width="15" height="15" viewBox="0 0 15 15" fill="none" xmlns="http://www.w3.org/2000/svg">
    <path fill-rule="evenodd" clip-rule="evenodd" d="M10.9667 3.30428e-05C9.93633 3.30428e-05 8.90347 0.39102 8.11501 1.17737H8.11109L5.50379 3.78465C5.35989 3.92859 5.22954 4.0824 5.11273 4.24094C5.60497 4.05947 6.12313 3.96799 6.64039 3.96799C7.14518 3.96799 7.65161 4.05559 8.13553 4.22871L9.64693 2.71322H9.65085C10.0114 2.35613 10.4881 2.17548 10.9667 2.17548C11.4465 2.17548 11.9218 2.35238 12.2826 2.71322C12.6455 3.07407 12.8244 3.55143 12.8244 4.02908C12.8244 4.5109 12.6454 4.99236 12.2867 5.34901H12.2827L9.67547 7.95628V7.9602C9.31876 8.31688 8.83934 8.49389 8.35958 8.49389C7.87986 8.49389 7.40459 8.3129 7.04373 7.95205C6.73919 7.64961 6.56207 7.26471 6.51414 6.8684C6.35769 6.88093 6.20175 6.91592 6.05785 6.97432C5.916 7.03273 5.77967 7.11645 5.65451 7.22283L5.5812 7.29617L4.64829 8.22906C4.84435 8.68795 5.13043 9.1186 5.50382 9.49197C6.29014 10.2783 7.32501 10.6693 8.35958 10.6693C9.38999 10.6693 10.4229 10.2763 11.2113 9.4879L11.2152 9.49182L13.8225 6.88456L13.8186 6.88063C14.605 6.09219 15 5.05932 15 4.02892C15 2.99435 14.609 1.95741 13.8226 1.17314C13.0363 0.38679 12.0013 -0.00413913 10.9667 3.30428e-05ZM6.64027 4.32241C5.60781 4.32241 4.5749 4.7134 3.78855 5.49975H3.78463L1.17735 8.10702C0.391003 8.89337 0 9.92823 0 10.9628C0 11.9974 0.391003 13.0322 1.17735 13.8186C1.9637 14.6049 2.99855 15 4.03315 15C5.06352 15 6.0964 14.6049 6.88487 13.8186H6.88879L9.49199 11.2113C9.63589 11.0695 9.76627 10.9176 9.88308 10.7591C9.39292 10.9406 8.87463 11.0321 8.35943 11.0321C7.8693 11.0321 7.37856 10.9483 6.90505 10.7835L6.86432 10.7713L5.34885 12.2787V12.2826C4.99006 12.6413 4.51272 12.8204 4.03297 12.8204C3.55324 12.8204 3.08006 12.6394 2.71711 12.2785C2.35625 11.9177 2.1753 11.4403 2.1753 10.9627C2.1753 10.485 2.35419 10.0076 2.71711 9.64681L5.32031 7.03953H5.32426C5.68688 6.68036 6.16147 6.50178 6.64012 6.50178C7.11776 6.50178 7.59513 6.67869 7.95597 7.03953C8.26051 7.34197 8.43763 7.72887 8.48559 8.12726C8.63993 8.11474 8.79792 8.07566 8.94185 8.01726C9.08786 7.95885 9.22618 7.87315 9.34923 7.76469L9.4185 7.69541L10.3514 6.76251C10.1533 6.30572 9.87134 5.87704 9.49591 5.50368C8.70956 4.71733 7.67484 4.3245 6.64027 4.32241Z" fill="#1F0A9F"/>
</svg>
